<?xml version="1.0" encoding="UTF-8" standalone="no"?>
<!-- Created with Inkscape (http://www.inkscape.org/) -->

<svg
   version="1.1"
   id="svg422"
   width="69.3899"
   height="70.083359"
   viewBox="0 0 69.389902 70.083359"
   xml:space="preserve"
   xmlns="http://www.w3.org/2000/svg"
   xmlns:svg="http://www.w3.org/2000/svg"><defs
     id="defs426"><filter
       style="color-interpolation-filters:sRGB"
       id="filter17"
       x="0"
       y="0"
       width="1"
       height="1"><feColorMatrix
         type="hueRotate"
         values="0"
         id="feColorMatrix15" /><feColorMatrix
         type="saturate"
         values="1"
         id="feColorMatrix16" /><feColorMatrix
         type="matrix"
         values="2 -1 0 0 0 0 2 -1 0 0 -1 0 2 0 0 0 0 0 1 0 "
         id="feColorMatrix17" /></filter><filter
       style="color-interpolation-filters:sRGB"
       id="filter20"
       x="0"
       y="0"
       width="1"
       height="1"><feColorMatrix
         type="hueRotate"
         values="0"
         id="feColorMatrix18" /><feColorMatrix
         type="saturate"
         values="1"
         id="feColorMatrix19" /><feColorMatrix
         type="matrix"
         values="2 -1 0 0 0 0 2 -1 0 0 -1 0 2 0 0 0 0 0 1 0 "
         id="feColorMatrix20" /></filter><filter
       style="color-interpolation-filters:sRGB"
       id="filter23"
       x="0"
       y="0"
       width="1"
       height="1"><feColorMatrix
         type="hueRotate"
         values="0"
         id="feColorMatrix21" /><feColorMatrix
         type="saturate"
         values="1"
         id="feColorMatrix22" /><feColorMatrix
         type="matrix"
         values="2 -1 0 0 0 0 2 -1 0 0 -1 0 2 0 0 0 0 0 1 0 "
         id="feColorMatrix23" /></filter><filter
       style="color-interpolation-filters:sRGB"
       id="filter26"
       x="0"
       y="0"
       width="1"
       height="1"><feColorMatrix
         type="hueRotate"
         values="0"
         id="feColorMatrix24" /><feColorMatrix
         type="saturate"
         values="1"
         id="feColorMatrix25" /><feColorMatrix
         type="matrix"
         values="2 -1 0 0 0 0 2 -1 0 0 -1 0 2 0 0 0 0 0 1 0 "
         id="feColorMatrix26" /></filter><filter
       style="color-interpolation-filters:sRGB"
       id="filter29"
       x="0"
       y="0"
       width="1"
       height="1"><feColorMatrix
         type="hueRotate"
         values="0"
         id="feColorMatrix27" /><feColorMatrix
         type="saturate"
         values="1"
         id="feColorMatrix28" /><feColorMatrix
         type="matrix"
         values="2 -1 0 0 0 0 2 -1 0 0 -1 0 2 0 0 0 0 0 1 0 "
         id="feColorMatrix29" /></filter><filter
       style="color-interpolation-filters:sRGB"
       id="filter60"
       x="-0.16792934"
       y="-0.11700285"
       width="1.3358587"
       height="1.2340057"><feGaussianBlur
         stdDeviation="0.98 1.37"
         result="blur"
         id="feGaussianBlur60" /></filter><filter
       style="color-interpolation-filters:sRGB"
       id="filter61"
       x="-0.1039971"
       y="-0.12276948"
       width="1.2079942"
       height="1.245539"><feGaussianBlur
         stdDeviation="0.98 1.37"
         result="blur"
         id="feGaussianBlur61" /></filter><filter
       style="color-interpolation-filters:sRGB"
       id="filter62"
       x="-0.14626489"
       y="-0.13312267"
       width="1.2925298"
       height="1.2662453"><feGaussianBlur
         stdDeviation="0.98 1.37"
         result="blur"
         id="feGaussianBlur62" /></filter><filter
       style="color-interpolation-filters:sRGB"
       id="filter63"
       x="-0.11403601"
       y="-0.17748769"
       width="1.228072"
       height="1.3549754"><feGaussianBlur
         stdDeviation="0.98 1.37"
         result="blur"
         id="feGaussianBlur63" /></filter><filter
       style="color-interpolation-filters:sRGB"
       id="filter64"
       x="-0.10468116"
       y="-0.33420618"
       width="1.2093623"
       height="1.6684124"><feGaussianBlur
         stdDeviation="0.98 1.37"
         result="blur"
         id="feGaussianBlur64" /></filter></defs><g
     id="g22"
     transform="translate(-41.326263,111.21362)"><g
       id="g21"><g
         id="g69"
         transform="matrix(0.55917705,-0.19131573,0.15954276,0.4663111,68.174283,-32.279079)"><path
           style="fill:#38efff;fill-opacity:0.576471;stroke-width:0.171513;filter:url(#filter61)"
           d="m 13.375778,-106.14192 c -5.188274,-0.0643 -9.487752,-0.12778 -9.554396,-0.14112 -0.06665,-0.0133 -0.09039,-4.03949 -0.05277,-8.94697 0.04942,-6.44587 0.01617,-8.89042 -0.119721,-8.80642 -0.108785,0.0672 -0.139584,0.0377 -0.07303,-0.07 0.0633,-0.10243 -0.01971,-0.46899 -0.184543,-0.81459 -0.282829,-0.5931 -0.28314,-0.64041 -0.0055,-0.84342 0.161772,-0.11829 0.237447,-0.27771 0.168163,-0.35425 -0.06928,-0.0765 -0.04017,-0.0902 0.06476,-0.0304 0.246937,0.14079 1.628836,-0.39932 1.510702,-0.59048 -0.04944,-0.08 0.04259,-0.0946 0.204439,-0.0325 0.215487,0.0827 0.256712,0.0521 0.153924,-0.11422 -0.09016,-0.14588 -0.07386,-0.18604 0.04556,-0.11224 0.153682,0.095 5.394819,-1.74464 5.955766,-2.09045 0.09433,-0.0582 0.265497,-0.12001 0.380368,-0.13745 0.456308,-0.0693 3.577745,-1.14917 3.77694,-1.30665 0.116875,-0.0924 0.162835,-0.24837 0.102137,-0.34659 -0.06465,-0.10461 -0.0272,-0.12716 0.09044,-0.0545 0.110441,0.0683 0.160854,0.18876 0.112019,0.26778 -0.04883,0.079 0.06481,0.10349 0.25254,0.0544 0.187734,-0.0491 0.311278,-0.13837 0.274544,-0.19839 -0.03671,-0.06 0.20224,-0.1152 0.531053,-0.12261 0.328817,-0.007 0.649166,-0.0846 0.711894,-0.17151 0.06273,-0.0869 0.191234,-0.1587 0.285563,-0.1595 0.542508,-0.004 2.461878,-0.67215 2.368245,-0.82365 -0.06494,-0.10507 -9.77e-4,-0.1351 0.157595,-0.0742 0.353954,0.13582 1.83308,-0.29872 1.497341,-0.4399 -0.137437,-0.0578 -0.03763,-0.0612 0.221772,-0.007 0.296446,0.0613 0.47166,0.0247 0.47166,-0.0986 0,-0.14564 0.09205,-0.14687 0.357547,-0.004 0.348773,0.18666 0.842562,1.10519 0.963949,1.79312 0.03327,0.18866 0.121834,0.36421 0.196766,0.39009 0.07493,0.0258 0.103332,0.27123 0.06312,0.54521 -0.0696,0.47421 -0.18333,0.53469 -2.365963,1.25848 -1.26107,0.41818 -2.237174,0.82195 -2.169119,0.89727 0.06805,0.0753 0.03346,0.0853 -0.07682,0.0221 -0.197645,-0.11316 -2.733285,0.60914 -3.40122,0.96887 -0.188661,0.10161 -0.458796,0.19577 -0.600293,0.20924 -0.661996,0.063 -4.254495,1.36961 -4.164829,1.51469 0.05583,0.0903 0.01413,0.11023 -0.0927,0.0442 -0.175763,-0.10862 -1.689995,0.24955 -2.083702,0.49288 -0.08871,0.0548 -0.119057,0.20974 -0.06744,0.34426 0.07932,0.2067 1.315004,0.24574 7.979644,0.25204 5.085807,0.004 8.003411,0.0704 8.217048,0.18475 0.318392,0.1704 0.330348,0.41175 0.308023,6.21709 -0.01277,3.32189 -0.07066,7.27469 -0.128638,8.78402 l -0.105404,2.7442 -1.372104,0.0125 c -0.754659,0.007 -5.617057,-0.0401 -10.80533,-0.10437 z m 4.161192,-0.79778 c -0.163977,-0.0429 -0.472704,-0.0445 -0.68605,-0.004 -0.21335,0.041 -0.07918,0.0761 0.298151,0.078 0.377326,0.002 0.55188,-0.0317 0.387899,-0.0746 z m 2.827973,-0.006 c -0.306581,-0.038 -0.808258,-0.038 -1.114839,0 -0.306581,0.0381 -0.05574,0.0692 0.557417,0.0692 0.613162,0 0.863998,-0.0312 0.557422,-0.0692 z m -7.484277,-2.94169 c -0.160057,-0.17687 -0.268493,-0.4277 -0.240973,-0.55743 0.03273,-0.15426 -0.142793,-0.25445 -0.507387,-0.28959 l -0.557416,-0.0537 -0.01908,-1.4041 c -0.03089,-2.27324 -0.0024,-4.44103 0.05866,-4.50235 0.0924,-0.0924 4.60337,-0.11986 4.694644,-0.0286 0.04584,0.0458 0.08445,1.41459 0.08573,3.04163 l 0.0024,2.95824 -1.782264,-0.0306 c -1.527489,-0.0262 -1.782264,0.008 -1.782264,0.24208 0,0.24314 0.510714,0.27039 4.712621,0.2515 2.591944,-0.0116 4.816885,-0.0612 4.944314,-0.11009 0.686603,-0.26347 -0.268275,-0.39598 -2.853391,-0.39598 h -2.895287 l 0.05644,-2.57271 c 0.0404,-1.84234 9.77e-4,-2.57344 -0.138943,-2.57532 -0.141409,-0.002 -0.142871,-0.0375 -0.0053,-0.12863 0.104556,-0.0693 0.16927,-0.26108 0.143814,-0.42617 -0.04259,-0.27613 0.192629,-0.30013 2.940016,-0.30013 2.684315,0 3.478524,-0.11745 2.731839,-0.40398 -0.486001,-0.1865 -11.309585,-0.0622 -11.569988,0.13296 -0.180371,0.13512 -0.215798,0.13266 -0.130885,-0.009 0.08326,-0.13899 -0.375696,-0.2021 -1.610974,-0.22151 -1.302106,-0.0204 -1.696196,0.0233 -1.60063,0.17798 0.08771,0.14191 0.05347,0.15982 -0.111091,0.0582 -0.377415,-0.23326 -0.844204,-0.21284 -0.844204,0.037 0,0.17914 0.499646,0.2286 2.309465,0.2286 h 2.30946 l 0.0029,3.00148 c 0.0029,2.98922 0.0014,3.00152 -0.379939,3.01122 -0.210578,0.005 -1.270443,0.004 -2.355264,-0.003 -1.2182,-0.008 -1.883002,0.046 -1.738601,0.14103 0.197387,0.1298 0.197387,0.16786 0,0.24435 -0.128595,0.0498 1.097622,0.0785 2.724922,0.0637 1.627296,-0.0148 2.95867,0.0342 2.958602,0.1089 -1.7e-4,0.19199 0.398369,0.62162 0.583878,0.62941 0.08537,0.004 0.02428,-0.13817 -0.135791,-0.31503 z m 9.242283,-2.07963 c 0.0583,-0.0943 0.005,-0.17269 -0.118512,-0.17414 -0.137116,-0.002 -0.157746,-0.0517 -0.053,-0.12864 0.200996,-0.14767 0.235257,-2.09918 0.03686,-2.09872 -0.07407,1.8e-4 -0.05458,-0.14935 0.04332,-0.33226 0.171679,-0.32078 0.102963,-0.33251 -1.93778,-0.33065 -1.499207,0.002 -2.120265,0.0608 -2.131196,0.20394 -0.0289,0.37866 -0.0785,2.77426 -0.06008,2.90335 0.02807,0.19683 4.097818,0.15548 4.220414,-0.0429 z m -3.859045,-0.51889 c 0,-0.33034 0.02811,-0.33842 0.362714,-0.10406 0.199495,0.13973 0.46963,0.21302 0.600297,0.16288 0.130668,-0.0502 0.237579,-0.0215 0.237579,0.0637 0,0.0852 -0.27013,0.17299 -0.600293,0.19523 -0.507299,0.0342 -0.600297,-0.0151 -0.600297,-0.3177 z m 1.687222,0.0255 c -0.176667,-0.20633 -0.222097,-0.40651 -0.126502,-0.55742 0.08204,-0.12951 0.15034,-0.16562 0.151783,-0.0803 0.0014,0.0853 0.176287,0.008 0.388536,-0.17151 l 0.385903,-0.32674 -0.31132,0.36888 c -0.203187,0.24075 -0.247864,0.40809 -0.128638,0.48179 0.210126,0.12986 0.248873,0.60721 0.04929,0.60721 -0.07337,0 -0.25744,-0.14488 -0.409053,-0.32195 z m 1.161094,0.0506 c -0.158455,-0.41293 -0.132251,-0.43524 0.238923,-0.20344 0.39818,0.24867 0.447752,0.47474 0.104104,0.47474 -0.131406,0 -0.285767,-0.12209 -0.343027,-0.2713 z m -2.848316,-1.02517 c 0,-0.14707 0.07844,-0.21891 0.174311,-0.15967 0.09587,0.0592 0.129905,0.17959 0.07563,0.26739 -0.147025,0.2379 -0.249943,0.19354 -0.249943,-0.10772 z m 0.42705,-0.42146 c -0.05925,-0.0959 -0.179575,-0.12991 -0.26739,-0.0757 -0.08781,0.0543 -0.15966,-0.0988 -0.15966,-0.34023 0,-0.2414 0.07718,-0.43891 0.171514,-0.43891 0.09433,0 0.171513,0.0818 0.171513,0.18164 0,0.0999 0.0608,0.14406 0.135125,0.0981 0.07432,-0.0459 0.150637,0.10389 0.169591,0.33291 0.03652,0.44146 -0.04332,0.52908 -0.220693,0.2421 z m 2.761714,-0.42599 c -0.229094,-0.34963 -0.236422,-0.42878 -0.03972,-0.42878 0.132677,0 0.278113,0.19295 0.323199,0.42878 0.04507,0.23583 0.06295,0.42879 0.03972,0.42879 -0.02321,0 -0.168672,-0.19296 -0.323194,-0.42879 z m -2.308251,-0.21439 c -0.131498,-0.2457 -0.08857,-0.30015 0.236651,-0.30015 0.267726,0 0.346591,0.0611 0.241842,0.1873 -0.08549,0.10301 -0.104652,0.23808 -0.04259,0.30015 0.06207,0.0621 0.02554,0.11286 -0.08121,0.11286 -0.106735,0 -0.266347,-0.13508 -0.354696,-0.30016 z m 0.927697,-0.031 c -0.117152,-0.18956 0.153406,-0.39426 0.311783,-0.23587 0.163068,0.16306 0.132678,0.39553 -0.05172,0.39553 -0.08877,0 -0.205794,-0.0718 -0.260067,-0.15966 z m -12.722101,0.11678 c -0.0974,-0.16212 -0.0621,-0.16036 0.144769,0.007 0.330003,0.2673 3.161327,0.22148 3.094709,-0.0501 -0.02355,-0.0959 -0.798312,-0.19305 -1.758007,-0.22038 -1.449546,-0.0413 -1.715937,-0.008 -1.715937,0.21438 0,0.1448 0.08173,0.26328 0.181635,0.26328 0.0999,0 0.123674,-0.0965 0.05283,-0.2144 z m 3.281553,-1.32923 c 0.06811,-0.1102 -0.541343,-0.1715 -1.705011,-0.1715 -1.092994,0 -1.811008,0.068 -1.811008,0.1715 0,0.10285 0.68268,0.17152 1.705011,0.17152 0.951662,0 1.751843,-0.0757 1.811008,-0.17152 z m 10.37655,0 c 0,-0.0943 -0.07718,-0.1715 -0.171514,-0.1715 -0.09433,0 -0.171513,0.0772 -0.171513,0.1715 0,0.0943 0.07719,0.17152 0.171513,0.17152 0.09433,0 0.171514,-0.0772 0.171514,-0.17152 z m -13.463784,-3.30477 c 0.198601,-0.0496 0.06938,-0.0941 -0.306912,-0.1056 -0.546956,-0.0168 -0.614895,0.0179 -0.428784,0.2184 0.121635,0.13106 0.259747,0.17858 0.306911,0.10559 0.04715,-0.073 0.240118,-0.17126 0.428785,-0.21839 z m 1.800887,0.32429 c 0,-0.0356 -0.135068,-0.17068 -0.300147,-0.30014 -0.272033,-0.21334 -0.278098,-0.20728 -0.06476,0.0647 0.224058,0.2857 0.364904,0.37656 0.364904,0.23539 z m 6.137347,-1.6047 c -0.444922,-0.0352 -1.216728,-0.0355 -1.715136,-8.8e-4 -0.498404,0.0348 -0.134383,0.0636 0.808942,0.064 0.94332,4.9e-4 1.351105,-0.028 0.906194,-0.0632 z m 2.220347,0.0222 c -0.05699,-0.057 -0.204925,-0.063 -0.328736,-0.0136 -0.13682,0.0547 -0.09618,0.0954 0.103624,0.10362 0.180803,0.007 0.282105,-0.033 0.225112,-0.0901 z m 2.613695,-1.2256 c -0.01098,-0.25888 -0.460913,-0.71994 -0.583213,-0.59763 -0.06928,0.0693 -0.106071,0.0487 -0.08175,-0.0456 0.02433,-0.0943 -0.05854,-0.38316 -0.184141,-0.64183 -0.191103,-0.39359 -0.271314,-0.43557 -0.491632,-0.25727 -0.210063,0.16999 -0.237244,0.16972 -0.134475,-0.002 0.0956,-0.15913 -0.07488,-0.21439 -0.661371,-0.21439 h -0.790167 l 0.538933,0.7833 c 0.296413,0.43083 0.705319,0.85043 0.908685,0.93246 0.461297,0.18606 1.486469,0.21535 1.479131,0.0423 z m 3.176716,-0.0457 c -0.05925,-0.0959 -0.191502,-0.12254 -0.293892,-0.0592 -0.10944,0.0677 -0.136961,0.0354 -0.06677,-0.0781 0.145697,-0.23574 -0.386725,-1.09468 -0.597724,-0.96428 -0.08293,0.0512 -0.104823,-0.0266 -0.04865,-0.17298 0.07707,-0.20085 -0.01812,-0.26931 -0.38787,-0.27893 -0.269502,-0.007 -0.660893,-0.0447 -0.869756,-0.0837 -0.280848,-0.0525 -0.354338,-0.004 -0.282178,0.18327 0.05366,0.13985 0.165783,0.21211 0.249151,0.16059 0.08337,-0.0515 0.109178,0.0168 0.05736,0.15185 -0.111558,0.29072 0.740391,1.0202 1.002371,0.85829 0.103886,-0.0642 0.126239,-0.0265 0.05375,0.0909 -0.06826,0.11045 -0.207882,0.14905 -0.310272,0.0858 -0.111111,-0.0686 -0.136825,-0.0352 -0.06379,0.0829 0.06731,0.1089 0.469693,0.198 0.894189,0.198 0.479123,0 0.730949,-0.0661 0.664074,-0.1743 z m -17.275161,-0.38311 c -0.137928,-0.21225 -0.358324,-0.55956 -0.489764,-0.77181 -0.154341,-0.24923 -0.406611,-0.3859 -0.712269,-0.3859 -0.446587,0 -0.473281,0.0436 -0.473281,0.7718 v 0.77182 h 0.96305 c 0.958681,0 0.96191,-0.002 0.712264,-0.38591 z m -0.884108,-0.67456 c 0.04953,-0.0802 0.161908,-0.10132 0.249725,-0.0471 0.224402,0.13869 0.199136,0.19277 -0.09007,0.19277 -0.137349,0 -0.209198,-0.0655 -0.15966,-0.14572 z m 4.521887,0.93102 c -0.002,-0.0703 -0.163156,-0.32078 -0.357907,-0.55661 -0.194755,-0.23583 -0.296436,-0.31301 -0.225962,-0.17151 0.07418,0.14892 0.06331,0.198 -0.02579,0.11653 -0.08467,-0.0774 -0.154929,-0.27036 -0.156133,-0.42878 -0.002,-0.23066 -0.202084,-0.29839 -1.005703,-0.34 -0.767781,-0.0397 -0.984346,4.8e-4 -0.921884,0.17151 0.04492,0.1229 0.174199,0.20226 0.287335,0.17635 0.113137,-0.0259 0.157246,0.0312 0.09803,0.12709 -0.05922,0.0958 0.03108,0.35815 0.200627,0.58295 0.251457,0.33337 0.474524,0.41256 1.209763,0.42951 0.495801,0.0115 0.89974,-0.0367 0.897642,-0.10704 z m 3.049492,-0.72366 c -0.556659,-0.84993 -0.562084,-0.85304 -1.459177,-0.83501 -0.869951,0.0175 -1.114838,0.16326 -0.702435,0.41815 0.133208,0.0823 0.152279,0.0435 0.05826,-0.11852 -0.08142,-0.14034 -0.0755,-0.18215 0.01418,-0.10015 0.08467,0.0774 0.154929,0.23932 0.156129,0.35982 9.77e-4,0.12048 0.155576,0.42375 0.343047,0.67394 0.293367,0.3915 0.466789,0.45488 1.244786,0.45488 h 0.903936 z m 3.748584,0.42396 c -0.15222,-0.23564 -0.401409,-0.62137 -0.553755,-0.8572 -0.239015,-0.37 -0.403628,-0.42878 -1.20059,-0.42878 -0.876051,0 -1.162002,0.17543 -0.725589,0.44516 0.131027,0.081 0.151074,0.0464 0.05927,-0.10214 -0.08987,-0.1454 -0.07163,-0.18303 0.05176,-0.10676 0.104789,0.0647 0.147049,0.23104 0.09391,0.36952 -0.05314,0.13848 -0.0093,0.25178 0.09749,0.25178 0.10676,0 0.263559,0.18267 0.348441,0.40592 0.135724,0.35699 0.271966,0.40864 1.130077,0.42842 l 0.975746,0.0225 z m 8.251741,-0.42842 c -0.01423,-0.18866 -0.125185,-0.34302 -0.246611,-0.34302 -0.276958,0 -0.283548,0.21164 -0.01495,0.48023 0.273389,0.27339 0.291769,0.26375 0.261568,-0.13721 z m 0.04715,-0.6203 c 0,-0.0362 -0.197509,-0.0657 -0.438904,-0.0657 -0.2414,0 -0.395683,0.07 -0.342858,0.15541 0.08788,0.14218 0.781762,0.0626 0.781762,-0.0897 z m -19.852653,-1.03691 c -0.117914,-0.0476 -0.214389,-0.2784 -0.214389,-0.51293 0,-0.3436 0.0746,-0.41577 0.38415,-0.37161 0.43887,0.0626 0.622704,0.62653 0.275899,0.84632 -0.13767,0.0873 0.413239,0.14762 1.361264,0.14918 1.539747,0.003 1.586445,-0.009 1.408948,-0.3404 -0.100971,-0.18866 -0.258047,-0.34302 -0.349058,-0.34302 -0.09102,0 -0.146183,-0.0965 -0.122601,-0.21439 0.03118,-0.1559 -0.347956,-0.22292 -1.389577,-0.24562 -0.787846,-0.0172 -1.525746,-0.067 -1.639771,-0.11079 -0.136646,-0.0525 -0.220766,0.14824 -0.246752,0.58864 -0.03521,0.59694 0.0024,0.66676 0.35343,0.65467 0.216069,-0.007 0.296373,-0.0525 0.178457,-0.10005 z m 6.404802,-2.04965 c 0.744907,-0.18696 0.518775,-0.43298 -0.766343,-0.83371 -0.316823,-0.0988 -0.376992,-0.0753 -0.270669,0.10573 0.08475,0.14429 0.01141,0.12639 -0.19291,-0.0471 -0.448491,-0.38078 -1.048322,-0.54514 -1.184613,-0.32461 -0.06163,0.0997 -0.183892,0.13688 -0.271703,0.0826 -0.08782,-0.0542 -0.159664,-0.0123 -0.159664,0.0931 0,0.10547 -0.07718,0.14406 -0.171514,0.0858 -0.09433,-0.0583 -0.257285,-0.053 -0.362122,0.0118 -0.237234,0.14662 2.070284,0.97089 2.382532,0.85106 0.139953,-0.0537 0.179959,-0.0108 0.104279,0.11156 -0.08331,0.13481 -0.02589,0.16152 0.178535,0.083 0.16574,-0.0636 0.487123,-0.16226 0.714192,-0.21926 z m 2.901001,-1.09354 c -0.05763,-0.0933 -0.0044,-0.13269 0.118517,-0.0876 0.122815,0.045 0.558937,-0.0188 0.96916,-0.14187 l 0.745859,-0.22379 -1.534069,-0.46039 c -1.750917,-0.52546 -2.079147,-0.55426 -2.533261,-0.2222 -0.179157,0.13101 -0.444752,0.20235 -0.590201,0.15856 -0.184728,-0.0556 -0.173558,-0.0212 0.03706,0.11412 0.165827,0.10656 0.371486,0.1505 0.457014,0.0976 0.08552,-0.0528 0.181391,-0.0334 0.213034,0.0433 0.03161,0.0767 0.482023,0.30008 1.000847,0.49644 1.116164,0.42241 1.254917,0.45049 1.116047,0.2258 z m 4.324668,-1.3132 c 0.392183,-0.0984 0.336821,-0.1491 -0.562797,-0.5151 -0.548773,-0.22326 -1.156879,-0.3617 -1.351347,-0.30765 -0.261651,0.0727 -0.291367,0.0553 -0.114292,-0.067 0.364554,-0.25195 -0.266352,-0.33721 -1.058929,-0.1431 l -0.648126,0.15873 1.161632,0.39092 c 0.638901,0.21502 1.231909,0.3475 1.317806,0.29441 0.08589,-0.0531 0.105172,-0.014 0.04283,0.0868 -0.131483,0.21274 0.211491,0.39058 0.547923,0.2841 0.126675,-0.0401 0.426059,-0.12203 0.665288,-0.18208 z m 3.418218,-1.09984 0.472423,-0.17962 -1.066853,-0.5913 c -1.239746,-0.68712 -1.190654,-0.68098 -2.351982,-0.29437 l -0.891945,0.29694 1.220122,0.54237 c 1.224376,0.54428 1.678043,0.58344 2.618235,0.22598 z m 0.887862,-1.75538 c -0.195047,-0.36257 -0.289487,-0.39972 -0.656596,-0.25826 l -0.428784,0.16524 0.600297,0.29782 c 0.330163,0.16379 0.625633,0.28 0.656597,0.25825 0.03098,-0.0218 -0.04623,-0.23013 -0.171514,-0.46305 z m -15.063701,3.41299 c 0,-0.037 0.11978,-0.11337 0.266177,-0.16955 0.152633,-0.0586 0.221475,-0.0298 0.161388,0.0674 -0.100719,0.16297 -0.427565,0.24105 -0.427565,0.10214 z"
           id="path15-2" /><path
           style="fill:#4dd6ff;fill-opacity:0.796078;stroke-width:0.171513;filter:url(#filter17)"
           d="m 14.038446,-106.33778 c -5.188274,-0.0643 -9.487752,-0.12778 -9.554396,-0.14112 -0.06665,-0.0133 -0.09039,-4.03949 -0.05277,-8.94697 0.04942,-6.44587 0.01617,-8.89042 -0.119721,-8.80642 -0.108785,0.0672 -0.139584,0.0377 -0.07303,-0.07 -0.2319994,-0.77521 -0.384171,-1.33564 -0.02188,-2.01226 -0.06928,-0.0765 -0.04017,-0.0902 0.06476,-0.0304 0.1006271,0.0574 7.733629,-2.85558 7.870391,-2.93989 0.09435,-0.0582 0.269232,-0.10356 0.380368,-0.13745 4.722669,-1.44024 6.461562,-2.39143 10.853743,-3.48092 0.141356,-0.0351 0.09205,-0.14687 0.357547,-0.004 0.348773,0.18666 0.842562,1.10519 0.963949,1.79312 0.03327,0.18866 0.121834,0.36421 0.196766,0.39009 0.07493,0.0258 0.103332,0.27123 0.06312,0.54521 -0.0696,0.47421 -0.165225,0.59176 -2.365963,1.25848 -1.832658,0.55521 -12.14024,3.87209 -12.588683,4.14925 -0.08871,0.0548 -0.119057,0.20974 -0.06744,0.34426 0.07932,0.2067 1.315004,0.24574 7.979644,0.25204 5.085807,0.004 8.003411,0.0704 8.217048,0.18475 0.318392,0.1704 0.330348,0.41175 0.308023,6.21709 -0.01277,3.32189 -0.07066,7.27469 -0.128638,8.78402 l -0.105404,2.7442 -1.372104,0.0125 z m 6.94083,-15.38693 c -0.01098,-0.25888 -0.460913,-0.71994 -0.583213,-0.59763 -0.06928,0.0693 -0.106071,0.0487 -0.08175,-0.0456 0.02433,-0.0943 -0.05854,-0.38316 -0.184141,-0.64183 -0.191103,-0.39359 -0.271314,-0.43557 -0.491632,-0.25727 -0.210063,0.16999 -0.237244,0.16972 -0.134475,-0.002 0.0956,-0.15913 -0.07488,-0.21439 -0.661371,-0.21439 h -0.790167 l 0.538933,0.7833 c 0.296413,0.43083 0.705319,0.85043 0.908685,0.93246 0.461297,0.18606 1.486469,0.21535 1.479131,0.0423 z m 3.176716,-0.0457 c 0.02178,-0.34226 -0.862484,-1.59859 -0.967959,-1.63191 -0.408548,0.0934 -1.113507,-0.0903 -1.570168,-0.0311 0.196967,0.28847 0.56394,1.19761 0.994013,1.76774 0.195362,0.0849 1.610982,0.004 1.544107,-0.10459 z m -17.275161,-0.38311 c -0.137928,-0.21225 -0.358324,-0.55956 -0.489764,-0.77181 -0.154341,-0.24923 -0.406611,-0.3859 -0.712269,-0.3859 -0.446587,0 -0.473281,0.0436 -0.473281,0.7718 v 0.77182 h 0.96305 c 0.958681,0 0.96191,-0.002 0.712264,-0.38591 z m 3.637779,0.25646 c -0.002,-0.0703 -0.163156,-0.32078 -0.357907,-0.55661 -0.1915359,-0.23193 -0.155394,-0.27557 -0.3904586,-0.68416 -0.132698,-0.23066 -0.2195104,-0.098 -1.0231294,-0.1396 -0.767781,-0.0397 -1.011313,0.0129 -0.921884,0.17151 0.2549026,0.45207 0.2898617,0.48777 0.585992,0.88639 0.2490143,0.3352 0.474524,0.41256 1.209763,0.42951 0.495801,0.0115 0.89974,-0.0367 0.897642,-0.10704 z m 3.049492,-0.72366 c -0.556659,-0.84993 -0.562084,-0.85304 -1.459177,-0.83501 -0.869951,0.0175 -1.114838,0.16326 -0.702435,0.41815 0.133208,0.0823 0.152279,0.0435 0.05826,-0.11852 -0.08142,-0.14034 -0.0755,-0.18215 0.01418,-0.10015 0.08467,0.0774 0.154929,0.23932 0.156129,0.35982 9.77e-4,0.12048 0.155576,0.42375 0.343047,0.67394 0.293367,0.3915 0.466789,0.45488 1.244786,0.45488 h 0.903936 z m 3.748584,0.42396 c -0.15222,-0.23564 -0.401409,-0.62137 -0.553755,-0.8572 -0.239015,-0.37 -0.403628,-0.42878 -1.20059,-0.42878 -0.876051,0 -1.162002,0.17543 -0.725589,0.44516 0.131027,0.081 0.151074,0.0464 0.05927,-0.10214 -0.08987,-0.1454 -0.07163,-0.18303 0.05176,-0.10676 0.104789,0.0647 0.147049,0.23104 0.09391,0.36952 -0.05314,0.13848 -0.0093,0.25178 0.09749,0.25178 0.10676,0 0.263559,0.18267 0.348441,0.40592 0.135724,0.35699 0.271966,0.40864 1.130077,0.42842 l 0.975746,0.0225 z m -11.553762,-2.08563 1.806924,0.11096 c 1.539747,0.003 1.586445,-0.009 1.408948,-0.3404 -0.100971,-0.18866 -0.258047,-0.34302 -0.349058,-0.34302 -0.09102,0 -0.146183,-0.0965 -0.122601,-0.21439 0.03118,-0.1559 -0.347956,-0.22292 -1.389577,-0.24562 -0.787846,-0.0172 -1.525746,-0.067 -1.639771,-0.11079 -0.136646,-0.0525 -0.220766,0.14824 -0.246752,0.58864 -0.03521,0.59694 0.0024,0.66676 0.35343,0.65467 0.216069,-0.007 0.296373,-0.0525 0.178457,-0.10005 z m 6.404802,-2.04965 c 0.744907,-0.18696 0.455818,-0.26941 -0.766343,-0.83371 -0.741783,-0.3425 -0.806888,-0.66871 -1.106095,-0.64478 -0.5107085,0.32834 -0.8313869,0.36183 -1.3592321,0.51655 0.6959409,0.53067 1.8375751,1.0869 2.2710311,1.23046 0.16574,-0.0636 0.73357,-0.21155 0.960639,-0.26855 z m 2.919484,-0.82861 c 0.228412,-0.0777 0.865606,-0.34632 1.149289,-0.45743 l 0.665764,-0.26076 -1.534069,-0.46039 c 0.239203,0.0718 -0.487897,-0.20068 -1.792651,-0.5935 -0.184728,-0.0556 -1.504369,0.50866 -1.293751,0.64398 0.615954,0.059 1.064373,0.37712 1.670895,0.63734 0.315429,0.2111 0.909207,0.37516 1.134523,0.49076 z m 4.306185,-1.57813 c 0.392183,-0.0984 0.304787,-0.0786 -0.562797,-0.5151 -0.97844,-0.49232 -1.66629,-0.81797 -1.850918,-0.76172 l -1.321776,0.4027 1.161632,0.39092 c 0.611328,0.20573 0.888633,0.50453 1.455473,0.76987 0.126675,-0.0401 0.879145,-0.22659 1.118374,-0.28664 z m 3.418218,-1.09984 0.472423,-0.17962 -1.066853,-0.5913 c -1.239746,-0.68712 -1.190654,-0.68098 -2.351982,-0.29437 l -0.891945,0.29694 1.220122,0.54237 c 1.224376,0.54428 1.678043,0.58344 2.618235,0.22598 z m 0.887862,-1.75538 c -0.195047,-0.36257 -0.289487,-0.39972 -0.656596,-0.25826 l -0.428784,0.16524 0.600297,0.29782 c 0.330163,0.16379 0.625633,0.28 0.656597,0.25825 0.03098,-0.0218 -0.04623,-0.23013 -0.171514,-0.46305 z"
           id="path15" /></g><g
         id="g64"
         transform="matrix(0.5936855,0.18512082,-0.18266299,0.58580318,8.2877285,-19.901054)"><path
           d="m 123.53799,-84.408614 c -0.0215,-0.30656 -0.19463,-2.29398 -0.38467,-4.41646 -0.29841,-3.33271 -0.45484,-4.87221 -0.94112,-9.26171 -0.15139,-1.36654 -0.21268,-1.50075 -0.68547,-1.50075 -0.24092,0 -0.48072,-0.0427 -0.53288,-0.0948 -0.15326,-0.15327 -0.17983,-1.137976 -0.0321,-1.188296 0.0744,-0.0253 0.16311,-0.30136 0.1971,-0.61335 0.0547,-0.50204 0.63074,-1.38951 0.62976,-0.97023 -1.7e-4,0.0986 0.67084,0.14301 1.66253,0.10996 1.29358,-0.0432 1.70827,-0.11747 1.86722,-0.33485 0.14089,-0.19267 0.41882,-0.26677 0.89522,-0.23865 0.63086,0.0372 0.69961,-4.8e-4 0.79113,-0.43696 0.1058,-0.50433 1.30179,-7.87595 1.30179,-8.02377 0,-0.18251 0.88133,-0.074 1.54015,0.18961 0.61884,0.2476 0.92885,0.58167 0.5398,0.58167 -0.14547,0 -0.3899,1.16249 -1.06384,5.05964 -0.17945,1.03765 -0.3691,2.06797 -0.42146,2.2896 -0.0913,0.3866 -0.0612,0.40054 0.74288,0.34303 0.71874,-0.0514 0.82726,-0.0186 0.76203,0.23 -0.0679,0.25845 0.11237,0.28919 1.66046,0.28308 1.99883,-0.008 2.58597,0.22337 2.58597,1.01857 0,0.25786 0.0701,0.71359 0.15599,1.01272 0.16448,0.573536 0.0154,0.740186 -0.6624,0.740186 -0.25563,0 -0.32669,0.20755 -0.42576,1.24348 -0.20773,2.17206 -1.28166,11.83234 -1.44434,12.99213 -0.51625,3.68078 -8.71707,1.28456 -8.73803,0.98618 z m 5.62611,-0.61375 c 0,-0.0667 -0.19295,-0.40526 -0.42878,-0.75232 -0.23583,-0.34705 -0.42878,-0.69009 -0.42878,-0.7623 0,-0.0722 -0.1773,-0.28855 -0.39401,-0.48076 -0.2167,-0.19221 -0.28027,-0.27229 -0.14127,-0.17796 0.26369,0.17896 -0.30115,-0.87469 -1.33322,-2.48694 -0.33212,-0.51882 -0.6138,-0.98191 -0.62596,-1.02907 -0.0951,-0.36892 -0.31011,-0.66899 -0.42739,-0.59652 -0.078,0.0481 -0.19754,-0.003 -0.26579,-0.11324 -0.0775,-0.12542 -0.0497,-0.15486 0.0739,-0.0784 0.28205,0.17432 0.25005,0.0573 -0.20182,-0.73829 -0.21991,-0.38716 -0.46383,-0.64587 -0.54204,-0.57493 -0.0782,0.071 -0.0918,0.0409 -0.0303,-0.0669 0.0615,-0.1077 -0.16236,-0.64798 -0.49758,-1.20059 -0.37192,-0.6131 -0.57548,-0.83761 -0.52222,-0.57597 0.12528,0.61549 0.34172,2.46345 0.30639,2.61607 -0.0561,0.24261 0.50714,6.38772 0.60919,6.64566 0.0559,0.14149 0.0911,0.31047 0.078,0.3755 -0.013,0.065 1.05521,0.11825 2.37395,0.11825 1.31875,0 2.39773,-0.0546 2.39773,-0.12131 z m 3.73073,-14.02172 c -0.0444,-0.0444 -1.30718,-0.0594 -2.80617,-0.0334 l -2.72544,0.0473 0.51454,0.49972 c 0.28299,0.27485 0.41556,0.4424 0.29458,0.37234 -0.12097,-0.0701 0.11057,0.41073 0.51454,1.06839 0.40397,0.65767 0.78366,1.16628 0.84376,1.13024 0.0601,-0.0361 0.0987,0.0687 0.0858,0.23278 -0.0131,0.16499 0.078,0.27724 0.20362,0.25118 0.12493,-0.0259 0.17924,0.0304 0.1207,0.12509 -0.15494,0.2507 0.23585,0.89587 0.45908,0.75791 0.10946,-0.0677 0.14118,-0.0391 0.0751,0.0678 -0.13685,0.22143 0.53163,1.41178 0.79283,1.41178 0.10073,0 0.13099,0.0521 0.0672,0.11591 -0.0638,0.0638 0.0344,0.27599 0.21829,0.47166 0.18382,0.19566 0.34871,0.43293 0.36644,0.52726 0.15587,0.8297 0.29314,0.16308 0.64648,-3.13962 0.22512,-2.10411 0.37298,-3.86199 0.32858,-3.90639 z m 1.0693,-1.572516 c -0.002,-0.0708 -0.0473,-0.29604 -0.10212,-0.50064 -0.0965,-0.35976 -0.19367,-0.37386 -2.95626,-0.42877 -2.59651,-0.0516 -8.82251,0.007 -8.87516,0.0831 -0.012,0.0174 -0.0727,0.24386 -0.13493,0.50327 l -0.11315,0.47166 h 6.09198 c 3.35059,0 6.09093,-0.0579 6.08964,-0.12864 z m -5.88702,-4.03056 c -0.0476,-0.11791 -0.0865,-0.0214 -0.0865,0.2144 0,0.23582 0.039,0.33231 0.0865,0.21439 0.0476,-0.11792 0.0476,-0.31086 0,-0.42879 z m 0.17677,-0.94005 c -0.0435,-0.16687 -0.082,-0.0718 -0.0854,0.21113 -0.004,0.283 0.0321,0.41953 0.079,0.30341 0.047,-0.11613 0.0498,-0.34767 0.006,-0.51454 z m 0.90222,-4.29109 c 0.004,-0.11792 -0.0537,-0.21439 -0.12914,-0.21439 -0.0755,0 -0.23037,0.63674 -0.34429,1.41498 -0.38254,2.61321 -0.37284,2.79739 0.0474,0.90044 0.22989,-1.03765 0.42159,-1.98312 0.42599,-2.10103 z m 0.0938,-0.55742 c 0.0583,-0.0943 0.0242,-0.17151 -0.0757,-0.17151 -0.0999,0 -0.18164,0.0772 -0.18164,0.17151 0,0.0943 0.034,0.17151 0.0757,0.17151 0.0417,0 0.12334,-0.0772 0.18163,-0.17151 z"
           style="fill:#38efff;fill-opacity:1;stroke-width:0.171513;filter:url(#filter60)"
           id="path1-6-2" /><path
           d="m 123.53799,-84.408614 c -0.0215,-0.30656 -0.19463,-2.29398 -0.38467,-4.41646 -0.29841,-3.33271 -0.45484,-4.87221 -0.94112,-9.26171 -0.15139,-1.36654 -0.21268,-1.50075 -0.68547,-1.50075 -0.24092,0 -0.48072,-0.0427 -0.53288,-0.0948 -0.15326,-0.15327 -0.17983,-1.137976 -0.0321,-1.188296 0.0744,-0.0253 0.16311,-0.30136 0.1971,-0.61335 0.0547,-0.50204 0.63074,-1.38951 0.62976,-0.97023 -1.7e-4,0.0986 0.67084,0.14301 1.66253,0.10996 1.29358,-0.0432 1.70827,-0.11747 1.86722,-0.33485 0.14089,-0.19267 0.41882,-0.26677 0.89522,-0.23865 0.63086,0.0372 0.69961,-4.8e-4 0.79113,-0.43696 0.1058,-0.50433 1.30179,-7.87595 1.30179,-8.02377 0,-0.18251 0.88133,-0.074 1.54015,0.18961 0.61884,0.2476 0.92885,0.58167 0.5398,0.58167 -0.14547,0 -0.3899,1.16249 -1.06384,5.05964 -0.17945,1.03765 -0.3691,2.06797 -0.42146,2.2896 -0.0913,0.3866 -0.0612,0.40054 0.74288,0.34303 0.71874,-0.0514 0.82726,-0.0186 0.76203,0.23 -0.0679,0.25845 0.11237,0.28919 1.66046,0.28308 1.99883,-0.008 2.58597,0.22337 2.58597,1.01857 0,0.25786 0.0701,0.71359 0.15599,1.01272 0.16448,0.573536 0.0154,0.740186 -0.6624,0.740186 -0.25563,0 -0.32669,0.20755 -0.42576,1.24348 -0.20773,2.17206 -1.28166,11.83234 -1.44434,12.99213 -0.51625,3.68078 -8.71707,1.28456 -8.73803,0.98618 z m 5.62611,-0.61375 c 0,-0.0667 -0.19295,-0.40526 -0.42878,-0.75232 -0.23583,-0.34705 -0.42878,-0.69009 -0.42878,-0.7623 0,-0.0722 -0.1773,-0.28855 -0.39401,-0.48076 -0.2167,-0.19221 -0.28027,-0.27229 -0.14127,-0.17796 0.26369,0.17896 -0.30115,-0.87469 -1.33322,-2.48694 -0.33212,-0.51882 -0.6138,-0.98191 -0.62596,-1.02907 -0.0951,-0.36892 -0.31011,-0.66899 -0.42739,-0.59652 -0.078,0.0481 -0.19754,-0.003 -0.26579,-0.11324 -0.0775,-0.12542 -0.0497,-0.15486 0.0739,-0.0784 0.28205,0.17432 0.25005,0.0573 -0.20182,-0.73829 -0.21991,-0.38716 -0.46383,-0.64587 -0.54204,-0.57493 -0.0782,0.071 -0.0918,0.0409 -0.0303,-0.0669 0.0615,-0.1077 -0.16236,-0.64798 -0.49758,-1.20059 -0.37192,-0.6131 -0.57548,-0.83761 -0.52222,-0.57597 0.12528,0.61549 0.34172,2.46345 0.30639,2.61607 -0.0561,0.24261 0.50714,6.38772 0.60919,6.64566 0.0559,0.14149 0.0911,0.31047 0.078,0.3755 -0.013,0.065 1.05521,0.11825 2.37395,0.11825 1.31875,0 2.39773,-0.0546 2.39773,-0.12131 z m 3.73073,-14.02172 c -0.0444,-0.0444 -1.30718,-0.0594 -2.80617,-0.0334 l -2.72544,0.0473 0.51454,0.49972 c 0.28299,0.27485 0.41556,0.4424 0.29458,0.37234 -0.12097,-0.0701 0.11057,0.41073 0.51454,1.06839 0.40397,0.65767 0.78366,1.16628 0.84376,1.13024 0.0601,-0.0361 0.0987,0.0687 0.0858,0.23278 -0.0131,0.16499 0.078,0.27724 0.20362,0.25118 0.12493,-0.0259 0.17924,0.0304 0.1207,0.12509 -0.15494,0.2507 0.23585,0.89587 0.45908,0.75791 0.10946,-0.0677 0.14118,-0.0391 0.0751,0.0678 -0.13685,0.22143 0.53163,1.41178 0.79283,1.41178 0.10073,0 0.13099,0.0521 0.0672,0.11591 -0.0638,0.0638 0.0344,0.27599 0.21829,0.47166 0.18382,0.19566 0.34871,0.43293 0.36644,0.52726 0.15587,0.8297 0.29314,0.16308 0.64648,-3.13962 0.22512,-2.10411 0.37298,-3.86199 0.32858,-3.90639 z m 1.0693,-1.572516 c -0.002,-0.0708 -0.0473,-0.29604 -0.10212,-0.50064 -0.0965,-0.35976 -0.19367,-0.37386 -2.95626,-0.42877 -2.59651,-0.0516 -8.82251,0.007 -8.87516,0.0831 -0.012,0.0174 -0.0727,0.24386 -0.13493,0.50327 l -0.11315,0.47166 h 6.09198 c 3.35059,0 6.09093,-0.0579 6.08964,-0.12864 z m -5.88702,-4.03056 c -0.0476,-0.11791 -0.0865,-0.0214 -0.0865,0.2144 0,0.23582 0.039,0.33231 0.0865,0.21439 0.0476,-0.11792 0.0476,-0.31086 0,-0.42879 z m 0.17677,-0.94005 c -0.0435,-0.16687 -0.082,-0.0718 -0.0854,0.21113 -0.004,0.283 0.0321,0.41953 0.079,0.30341 0.047,-0.11613 0.0498,-0.34767 0.006,-0.51454 z m 0.90222,-4.29109 c 0.004,-0.11792 -0.0537,-0.21439 -0.12914,-0.21439 -0.0755,0 -0.23037,0.63674 -0.34429,1.41498 -0.38254,2.61321 -0.37284,2.79739 0.0474,0.90044 0.22989,-1.03765 0.42159,-1.98312 0.42599,-2.10103 z m 0.0938,-0.55742 c 0.0583,-0.0943 0.0242,-0.17151 -0.0757,-0.17151 -0.0999,0 -0.18164,0.0772 -0.18164,0.17151 0,0.0943 0.034,0.17151 0.0757,0.17151 0.0417,0 0.12334,-0.0772 0.18163,-0.17151 z"
           style="display:inline;opacity:1;fill:#4dd6ff;fill-opacity:0.796353;stroke-width:0.171513;filter:url(#filter20)"
           id="path1-6" /></g><g
         id="g66"
         transform="matrix(0.61616527,0.24033972,-0.1891856,0.48502011,20.33157,-74.408938)"><path
           d="m 88.91335,-89.788861 c -0.057,-0.09222 -0.18272,-0.88332 -0.27938,-1.758008 -0.0967,-0.8747 -0.21447,-1.70612 -0.26177,-1.84762 -0.0473,-0.14149 -0.11652,-0.75895 -0.15382,-1.3721 -0.0956,-1.5718 -1.04011,-8.887591 -1.37286,-10.633821 -0.42652,-2.23831 -0.44416,-2.13603 0.3789,-2.19596 l 0.71464,-0.052 v -0.77616 c 0,-0.54753 0.0926,-0.84969 0.31445,-1.02578 0.45874,-0.36416 1.05042,-0.58389 1.30709,-0.4854 0.16788,0.0645 0.22137,-0.14768 0.21403,-0.8487 -0.005,-0.51403 0.0647,-0.92145 0.15578,-0.90538 0.0911,0.0161 0.17872,-0.0673 0.1948,-0.1852 0.0161,-0.11791 0.0389,-0.28915 0.0507,-0.38052 0.0118,-0.0914 0.14987,-0.11684 0.30684,-0.0566 0.15697,0.0602 0.24167,0.0385 0.18822,-0.0483 -0.0905,-0.14692 0.19916,-0.2054 1.49878,-0.30254 0.64609,-0.0483 1.554,-0.52627 1.69434,-0.892 0.15323,-0.39931 0.13368,-0.45696 -0.10785,-0.31797 -0.11791,0.0679 -0.15427,0.0573 -0.0808,-0.0234 0.30706,-0.33741 2.03635,-0.51266 2.51754,-0.25513 0.28976,0.15507 0.43636,0.14908 0.66145,-0.0271 0.2597,-0.20322 0.26519,-0.19569 0.0538,0.0739 -0.20404,0.26017 -0.19699,0.30014 0.053,0.30014 0.15863,0 0.2407,0.0772 0.1824,0.17151 -0.0583,0.0943 -0.0242,0.17152 0.0757,0.17152 0.0999,0 0.16634,0.0579 0.14765,0.12863 -0.0187,0.0708 0.0274,0.30984 0.10263,0.53131 0.10568,0.31145 0.23127,0.38458 0.55446,0.32279 0.22982,-0.0439 0.38807,-0.0501 0.35167,-0.0137 -0.0364,0.0364 0.18939,0.33716 0.50176,0.66836 0.31237,0.33121 0.6177,0.86746 0.67853,1.19168 0.1024,0.54586 0.56048,0.91798 0.9878,0.80243 0.0778,-0.021 0.0844,0.054 0.0147,0.16668 -0.0855,0.13843 -0.0369,0.17046 0.15003,0.0987 0.19374,-0.0743 0.24824,-0.0321 0.18185,0.14092 -0.0521,0.1359 0.01,0.28736 0.13737,0.33657 0.12771,0.0492 0.24921,0.33058 0.27001,0.62527 0.0471,0.66673 0.0514,0.67073 0.77528,0.71166 0.58363,0.033 0.59427,0.0471 0.5458,0.72007 -0.0272,0.37751 -0.40418,3.23335 -0.83777,6.34631 -1.12689,8.090731 -1.28199,9.154441 -1.48178,10.162161 l -0.17851,0.900441 h -5.55189 c -3.43129,0 -5.59147,-0.06403 -5.65552,-0.167656 z m 1.70299,-1.847618 c -0.0437,-0.44807 -0.19681,-2.47407 -0.34035,-4.50222 -0.27937,-3.947261 -0.7074,-8.884561 -0.87356,-10.076401 -0.127,-0.91091 -0.57722,-1.01966 -0.57722,-0.13944 0,0.32422 0.31161,3.50794 0.69245,7.07492 0.38085,3.566981 0.73916,6.929221 0.79625,7.471631 0.0571,0.54241 0.16634,0.9862 0.24279,0.9862 0.0765,0 0.10328,-0.36661 0.0596,-0.81469 z m -0.90012,-7.503701 c 0.003,-0.28299 0.042,-0.378 0.0854,-0.21113 0.0435,0.16688 0.0406,0.39843 -0.006,0.51454 -0.047,0.11612 -0.0826,-0.0204 -0.0791,-0.30341 z m 3.56834,0.25727 v -8.06112 h -0.52804 -0.52804 l 0.10435,6.81765 c 0.13062,8.534111 0.18224,9.304591 0.62334,9.304591 0.31885,0 0.32839,-0.23408 0.32839,-8.061121 z m 2.98821,7.246431 c 0.23201,-1.80566 0.43493,-4.93571 0.52537,-8.104001 0.10163,-3.56006 0.2136,-5.5171 0.37534,-6.56038 l 0.0997,-0.64317 h -0.80385 c -0.49223,0 -0.76277,0.0665 -0.69785,0.17151 0.0583,0.0943 0.0257,0.17151 -0.0723,0.17151 -0.12009,0 -0.19336,2.57482 -0.22452,7.88966 l -0.0463,7.889651 0.36981,-5e-5 c 0.31214,-3e-5 0.38614,-0.1271 0.47449,-0.81473 z m 2.68186,0.77181 c 0.005,-0.0236 0.41103,-3.65108 0.90099,-8.061121 l 0.89084,-8.01824 h -0.38318 c -0.25879,0 -0.40972,0.12527 -0.46494,0.38591 -0.0449,0.21224 -0.35872,3.58891 -0.69722,7.50369 -0.3385,3.914801 -0.65908,7.368641 -0.71241,7.675211 -0.0763,0.43837 -0.0379,0.55743 0.17942,0.55743 0.152,0 0.28093,-0.0193 0.2865,-0.0429 z m 1.53348,-17.413311 c 0,-0.0733 -0.12015,-0.30488 -0.267,-0.51454 -0.28842,-0.41177 -0.76137,-0.51513 -0.76321,-0.16679 -4.9e-4,0.11792 -0.15448,-0.0171 -0.3419,-0.30015 -0.18741,-0.28299 -0.34127,-0.72679 -0.34189,-0.98621 -4.9e-4,-0.2594 -0.0828,-0.47165 -0.18277,-0.47165 -0.0999,0 -0.12656,0.0891 -0.0592,0.19801 0.0776,0.12553 0.0469,0.15133 -0.0839,0.0705 -0.14166,-0.0875 -0.15191,-0.1931 -0.0328,-0.33672 0.22611,-0.27245 -0.33159,-0.76424 -1.02363,-0.90264 -0.27799,-0.0556 -0.50544,-0.17318 -0.50544,-0.26129 0,-0.0881 -0.0663,-0.1192 -0.1474,-0.0691 -0.0811,0.0501 -0.12766,-0.0888 -0.10353,-0.30864 0.0242,-0.21987 -0.0241,-0.50715 -0.10724,-0.6384 -0.12628,-0.19942 -0.15334,-0.19637 -0.16461,0.0186 -0.007,0.14173 -0.0862,0.0757 -0.17539,-0.14692 -0.13325,-0.33272 -0.24505,-0.38488 -0.63229,-0.29494 -0.34926,0.0811 -0.40416,0.0644 -0.21316,-0.0648 0.22325,-0.15108 0.21943,-0.17444 -0.0289,-0.17673 -0.51202,-0.004 -0.82871,0.19884 -0.82871,0.5326 0,0.17984 -0.0965,0.48266 -0.2144,0.67293 -0.13949,0.22507 -0.15447,0.38904 -0.0429,0.46933 0.0943,0.0678 0.17151,0.27041 0.17151,0.45008 0,0.29674 0.24219,0.42686 0.90045,0.48378 0.11791,0.0102 0.17795,0.055 0.13341,0.0995 -0.0446,0.0446 0.10982,0.30773 0.34303,0.58487 0.51239,0.60894 0.57141,1.33515 0.1085,1.33515 -0.17352,0 -0.40539,-0.19731 -0.51527,-0.43846 -0.11932,-0.2619 -0.27921,-0.38936 -0.39705,-0.31653 -0.11749,0.0726 -0.15075,0.0466 -0.0822,-0.0642 0.15716,-0.25428 -0.19924,-0.44944 -0.45547,-0.24941 -0.11379,0.0888 -0.36782,0.20069 -0.56452,0.24859 -0.29933,0.0729 -0.34508,0.0214 -0.28061,-0.31587 0.0563,-0.29444 -0.0887,-0.56868 -0.53846,-1.01843 -0.33852,-0.33852 -0.68929,-0.56988 -0.77949,-0.51413 -0.0902,0.0558 -0.21262,0.0227 -0.27203,-0.0734 -0.0732,-0.11837 -0.21536,-0.11733 -0.44064,0.004 -0.18293,0.0979 -0.33433,0.11741 -0.33642,0.0433 -0.002,-0.0741 -0.15475,0.0583 -0.33922,0.29412 -0.39391,0.50359 -0.44214,1.34251 -0.10377,1.80525 0.37063,0.50687 -0.0828,0.76154 -0.94581,0.5312 -0.71772,-0.19157 -0.89278,-0.10516 -1.08661,0.53639 l -0.1166,0.38591 h 5.92877 c 3.26082,0 5.92876,-0.06 5.92876,-0.13335 z m -7.73997,-2.91101 c -0.21334,-0.27202 -0.20727,-0.27809 0.0648,-0.0647 0.16508,0.12946 0.30015,0.26452 0.30015,0.30014 0,0.14117 -0.14085,0.0503 -0.36491,-0.23539 z m -3.48312,-0.85016 c -0.0931,-0.24444 -0.0734,-0.26415 0.096,-0.096 0.11722,0.11634 0.16992,0.25473 0.11711,0.30754 -0.0528,0.0528 -0.14871,-0.0424 -0.21312,-0.21153 z m 0.34967,-0.1932 c -0.0486,-0.0786 0.0206,-0.14293 0.15385,-0.14293 0.1332,0 0.20243,0.0643 0.15384,0.14293 -0.0486,0.0786 -0.11781,0.14292 -0.15384,0.14292 -0.036,0 -0.10526,-0.0643 -0.15385,-0.14292 z"
           style="fill:#38efff;fill-opacity:0.992157;stroke-width:0.171513;filter:url(#filter62)"
           id="path1-62-3" /><g
           id="g65"><path
             d="m 88.91335,-89.788861 c -0.057,-0.09222 -0.18272,-0.88332 -0.27939,-1.758009 -0.0967,-0.874698 -0.21446,-1.706123 -0.26176,-1.847619 -0.0473,-0.141495 -0.11652,-0.758946 -0.15383,-1.372098 -0.0956,-1.571803 -1.04011,-8.887593 -1.37285,-10.633823 -0.42652,-2.23831 -0.44417,-2.13603 0.3789,-2.19596 l 0.71464,-0.052 v -0.77616 c 0,-0.54753 0.0926,-0.84969 0.31444,-1.02578 0.45875,-0.36416 1.05043,-0.58389 1.3071,-0.4854 0.16788,0.0645 0.22137,-0.14768 0.21403,-0.8487 -0.005,-0.51403 0.0647,-0.92145 0.15578,-0.90538 0.0911,0.0161 0.17872,-0.0673 0.1948,-0.1852 0.0161,-0.11791 0.0389,-0.28915 0.0507,-0.38052 0.0118,-0.0914 0.14987,-0.11684 0.30684,-0.0566 0.15697,0.0602 0.24167,0.0385 0.18822,-0.0483 -0.0905,-0.14692 0.19916,-0.2054 1.49878,-0.30254 0.64609,-0.0483 1.554,-0.52627 1.69434,-0.892 0.15323,-0.39931 0.13368,-0.45696 -0.10785,-0.31797 -0.11791,0.0679 -0.15427,0.0573 -0.0808,-0.0234 0.30706,-0.33741 2.03634,-0.51266 2.51754,-0.25513 0.28976,0.15507 0.43636,0.14908 0.66145,-0.0271 0.2597,-0.20322 0.26519,-0.19569 0.0538,0.0739 -0.20405,0.26017 -0.19699,0.30014 0.053,0.30014 0.15863,0 0.24069,0.0772 0.1824,0.17151 -0.0583,0.0943 -0.0242,0.17152 0.0757,0.17152 0.0999,0 0.16634,0.0579 0.14765,0.12863 -0.0187,0.0708 0.0274,0.30984 0.10263,0.53131 0.10568,0.31145 0.23127,0.38458 0.55446,0.32279 0.22981,-0.0439 0.38807,-0.0501 0.35167,-0.0137 -0.0364,0.0364 0.18939,0.33716 0.50176,0.66836 0.31236,0.33121 0.6177,0.86746 0.67853,1.19168 0.1024,0.54586 0.56048,0.91798 0.9878,0.80243 0.0778,-0.021 0.0844,0.054 0.0147,0.16668 -0.0855,0.13843 -0.0369,0.17046 0.15003,0.0987 0.19374,-0.0743 0.24824,-0.0321 0.18185,0.14092 -0.0521,0.1359 0.01,0.28736 0.13737,0.33657 0.12771,0.0492 0.24921,0.33058 0.27001,0.62527 0.0471,0.66673 0.0514,0.67073 0.77528,0.71166 0.58363,0.033 0.59427,0.0471 0.5458,0.72007 -0.0272,0.37751 -0.40418,3.23335 -0.83777,6.34631 -1.12689,8.090729 -1.28199,9.154439 -1.48178,10.162161 l -0.17851,0.900441 h -5.55189 c -3.43129,0 -5.59148,-0.06403 -5.65552,-0.167656 z m 1.70299,-1.847618 c -0.0437,-0.448072 -0.19681,-2.474074 -0.34035,-4.502224 -0.27937,-3.947257 -0.7074,-8.884557 -0.87356,-10.076397 -0.127,-0.91091 -0.57722,-1.01966 -0.57722,-0.13944 0,0.32422 0.31161,3.50794 0.69245,7.074922 0.38085,3.566981 0.73916,6.929215 0.79625,7.471629 0.0571,0.542414 0.16634,0.986196 0.24279,0.986196 0.0765,0 0.10328,-0.366606 0.0596,-0.814686 z m -0.90012,-7.503704 c 0.003,-0.282991 0.042,-0.377999 0.0854,-0.211124 0.0435,0.166874 0.0406,0.398423 -0.006,0.514539 -0.047,0.116116 -0.0826,-0.02042 -0.0791,-0.303415 z m 3.56834,0.257274 v -8.061121 h -0.52804 -0.52804 l 0.10435,6.81765 c 0.13062,8.534115 0.18224,9.304587 0.62334,9.304587 0.31885,0 0.32839,-0.234079 0.32839,-8.061116 z m 2.98821,7.24643 c 0.23201,-1.80566 0.43493,-4.935706 0.52537,-8.103998 0.10163,-3.560063 0.2136,-5.517103 0.37534,-6.560383 l 0.0997,-0.64317 h -0.80385 c -0.49223,0 -0.76277,0.0665 -0.69785,0.17151 0.0583,0.0943 0.0258,0.17151 -0.0723,0.17151 -0.12009,0 -0.19336,2.57482 -0.22452,7.889664 l -0.0463,7.889651 0.36981,-5.3e-5 c 0.31214,-3.6e-5 0.38614,-0.127101 0.47449,-0.814731 z m 2.68186,0.771813 c 0.005,-0.02362 0.41103,-3.651085 0.90098,-8.061125 l 0.89085,-8.018239 h -0.38318 c -0.25879,0 -0.40972,0.12527 -0.46494,0.38591 -0.0449,0.21224 -0.35872,3.58891 -0.69722,7.503692 -0.3385,3.914797 -0.65908,7.368638 -0.71241,7.675214 -0.0763,0.438366 -0.0379,0.557421 0.17942,0.557421 0.152,0 0.28092,-0.01927 0.2865,-0.04289 z m 1.53348,-17.413314 c 0,-0.0733 -0.12015,-0.30488 -0.267,-0.51454 -0.28842,-0.41177 -0.76137,-0.51513 -0.76321,-0.16679 -4.9e-4,0.11792 -0.15448,-0.0171 -0.3419,-0.30015 -0.18741,-0.28299 -0.34127,-0.72679 -0.34189,-0.98621 -4.9e-4,-0.2594 -0.0828,-0.47165 -0.18277,-0.47165 -0.0999,0 -0.12656,0.0891 -0.0592,0.19801 0.0776,0.12553 0.0469,0.15133 -0.0839,0.0705 -0.14166,-0.0875 -0.15191,-0.1931 -0.0328,-0.33672 0.22611,-0.27245 -0.33159,-0.76424 -1.02363,-0.90264 -0.27799,-0.0556 -0.50544,-0.17318 -0.50544,-0.26129 0,-0.0881 -0.0663,-0.1192 -0.14741,-0.0691 -0.0811,0.0501 -0.12766,-0.0888 -0.10352,-0.30864 0.0241,-0.21987 -0.0242,-0.50715 -0.10724,-0.6384 -0.12628,-0.19942 -0.15335,-0.19637 -0.16461,0.0186 -0.007,0.14173 -0.0862,0.0757 -0.17539,-0.14692 -0.13325,-0.33272 -0.24505,-0.38488 -0.63229,-0.29494 -0.34926,0.0811 -0.40416,0.0644 -0.21316,-0.0648 0.22325,-0.15108 0.21943,-0.17444 -0.0289,-0.17673 -0.51202,-0.004 -0.82872,0.19884 -0.82872,0.5326 0,0.17984 -0.0965,0.48266 -0.21439,0.67293 -0.13949,0.22507 -0.15447,0.38904 -0.0429,0.46933 0.0943,0.0678 0.17151,0.27041 0.17151,0.45008 0,0.29674 0.24219,0.42686 0.90045,0.48378 0.11791,0.0102 0.17795,0.055 0.13341,0.0995 -0.0446,0.0446 0.10982,0.30773 0.34303,0.58487 0.51239,0.60894 0.57141,1.33515 0.1085,1.33515 -0.17352,0 -0.40539,-0.19731 -0.51527,-0.43846 -0.11932,-0.2619 -0.27921,-0.38936 -0.39705,-0.31653 -0.11749,0.0726 -0.15075,0.0466 -0.0822,-0.0642 0.15716,-0.25428 -0.19925,-0.44944 -0.45547,-0.24941 -0.11379,0.0888 -0.36782,0.20069 -0.56452,0.24859 -0.29933,0.0729 -0.34508,0.0214 -0.28061,-0.31587 0.0563,-0.29444 -0.0887,-0.56868 -0.53846,-1.01843 -0.33852,-0.33852 -0.6893,-0.56988 -0.7795,-0.51413 -0.0902,0.0558 -0.21261,0.0227 -0.27202,-0.0734 -0.0732,-0.11837 -0.21536,-0.11733 -0.44064,0.004 -0.18293,0.0979 -0.33433,0.11741 -0.33642,0.0433 -0.002,-0.0741 -0.15475,0.0583 -0.33922,0.29412 -0.39392,0.50359 -0.44214,1.34251 -0.10377,1.80525 0.37063,0.50687 -0.0828,0.76154 -0.94581,0.5312 -0.71772,-0.19157 -0.89278,-0.10516 -1.08661,0.53639 l -0.1166,0.38591 h 5.92876 c 3.26083,0 5.92877,-0.06 5.92877,-0.13335 z m -7.73997,-2.91101 c -0.21334,-0.27202 -0.20728,-0.27809 0.0648,-0.0647 0.16508,0.12946 0.30014,0.26452 0.30014,0.30014 0,0.14117 -0.14084,0.0503 -0.3649,-0.23539 z m -3.48312,-0.85016 c -0.0931,-0.24444 -0.0734,-0.26415 0.096,-0.096 0.11722,0.11634 0.16992,0.25473 0.11711,0.30754 -0.0528,0.0528 -0.14871,-0.0424 -0.21312,-0.21153 z m 0.34967,-0.1932 c -0.0486,-0.0786 0.0206,-0.14293 0.15385,-0.14293 0.1332,0 0.20243,0.0643 0.15384,0.14293 -0.0486,0.0786 -0.11781,0.14292 -0.15384,0.14292 -0.036,0 -0.10527,-0.0643 -0.15385,-0.14292 z"
             style="display:inline;fill:#4dd6ff;fill-opacity:0.796078;stroke-width:0.171513;filter:url(#filter23)"
             id="path1-62" /></g></g><g
         id="g67"
         transform="matrix(0.6117027,-0.23422947,0.23398601,0.61106688,28.536546,18.815543)"><path
           d="m 61.786579,-85.805038 c 0.05473,-3.938365 0.114898,-7.237851 0.133717,-7.332181 0.0219,-0.10987 1.376901,-0.15383 3.769646,-0.12231 3.67525,0.0484 3.738629,0.0433 3.933487,-0.32085 0.136616,-0.25527 0.139539,-0.3339 0.0094,-0.25347 -0.107474,0.0664 -0.188628,-0.003 -0.188628,-0.16094 0,-0.15263 -0.07185,-0.23311 -0.159659,-0.17884 -0.08782,0.0543 -0.215511,0.008 -0.283771,-0.10214 -0.07751,-0.12541 -0.04976,-0.15486 0.07391,-0.0784 0.316124,0.19538 0.22876,-0.15989 -0.116054,-0.47195 -0.172738,-0.15632 -0.378066,-0.22617 -0.456281,-0.15521 -0.07822,0.0709 -0.08461,0.0291 -0.01418,-0.0929 0.160766,-0.27867 -0.215983,-0.75616 -0.478362,-0.60628 -0.107226,0.0613 -0.139599,0.0501 -0.07194,-0.0249 0.06767,-0.075 -0.02453,-0.32377 -0.204807,-0.55299 -0.180304,-0.22921 -0.285291,-0.5276 -0.2333,-0.66309 0.09897,-0.257911 0.743873,-0.349551 0.743873,-0.1057 0,0.22129 1.043334,1.32187 1.210025,1.27643 0.08235,-0.0225 0.110413,0.0616 0.06235,0.18691 -0.119269,0.31081 0.372893,0.68922 0.722103,0.55522 0.230473,-0.0885 0.245411,-0.0627 0.07961,0.13706 -0.282907,0.34088 -0.102434,0.39507 1.226843,0.36835 1.070419,-0.0215 1.202289,-0.0671 1.761969,-0.6096 0.33273,-0.32249 0.56917,-0.6796 0.52543,-0.79358 -0.0438,-0.11399 0.051,-0.30937 0.21043,-0.43418 0.26388,-0.20652 0.26867,-0.19608 0.0532,0.1161 -0.13022,0.18867 0.004,0.0922 0.29774,-0.21439 0.54149,-0.56473 0.94532,-0.700281 1.14135,-0.38312 0.0593,0.0959 0.1915,0.12254 0.29389,0.0592 0.11473,-0.0709 0.1365,-0.0346 0.0567,0.0944 -0.0712,0.11519 -0.17212,0.16675 -0.2243,0.11457 -0.12638,-0.12638 -0.9105,0.94515 -0.8103,1.10728 0.043,0.0695 -0.0368,0.22186 -0.17721,0.33843 -0.14046,0.11658 -0.25538,0.15195 -0.25538,0.0786 0,-0.0733 -0.15436,0.006 -0.34303,0.1771 -0.18866,0.17074 -0.34302,0.41424 -0.34302,0.54112 0,0.12688 -0.12221,0.23069 -0.27157,0.23069 -0.36551,0 -0.21906,0.387 0.16794,0.4438 0.16862,0.0248 0.35739,0.10168 0.41949,0.17095 0.0621,0.0693 -0.0222,0.0775 -0.18723,0.0183 -0.16508,-0.0592 -0.30015,-0.0343 -0.30015,0.0555 0,0.0998 1.58196,0.1477 4.07344,0.12326 3.51831,-0.0345 4.06565,-0.075 4.01627,-0.29726 -0.0315,-0.14149 4e-5,-0.20005 0.07,-0.13012 0.0699,0.0699 0.25002,0.0327 0.4002,-0.0828 0.21049,-0.16183 0.20508,-0.12981 -0.0236,0.13976 -0.25987,0.30635 -0.26565,0.3807 -0.0466,0.59974 0.21038,0.21039 0.25183,1.34535 0.26129,7.155243 0.006,3.797864 -0.0353,6.980498 -0.0922,7.072514 -0.0653,0.105717 -3.86402,0.167318 -10.317846,0.167318 h -10.21444 z m 14.689681,2.042208 c 0,-1.211502 -0.0505,-3.141031 -0.11211,-4.287833 l -0.11211,-2.085081 h -5.52451 -5.524511 l -0.109067,0.795745 c -0.05999,0.437665 -0.109072,2.367184 -0.109072,4.287833 v 3.492087 h 5.745694 5.745686 z m 2.91573,-2.599621 c 0,-0.09433 0.0817,-0.17151 0.18163,-0.17151 0.0999,0 0.13394,0.07717 0.0756,0.17151 -0.0583,0.09433 -0.0428,0.17151 0.0344,0.17151 0.0772,0 0.23267,-0.147782 0.34547,-0.328403 0.26225,-0.419922 -4.9e-4,-0.649632 -0.71972,-0.629341 -0.35854,0.01012 -0.53035,0.111614 -0.57482,0.339592 -0.046,0.235749 0.01,0.297111 0.20251,0.22313 0.18353,-0.07042 0.23638,-0.02504 0.17056,0.146486 -0.0525,0.136692 -0.01,0.248536 0.0945,0.248536 0.10443,0 0.18987,-0.07717 0.18987,-0.17151 z m 0.52041,-3.098201 c 0.26425,-0.493751 -0.093,-0.95596 -0.49034,-0.634332 -0.2198,0.177948 -0.24204,0.174369 -0.12488,-0.02016 0.0986,-0.163642 0.0691,-0.212163 -0.0957,-0.157302 -0.32059,0.106757 -0.40051,0.609654 -0.14567,0.916719 0.29152,0.351261 0.63496,0.309187 0.8566,-0.104963 z m -0.77647,0.01288 c -0.0601,-0.09722 0.009,-0.125973 0.1614,-0.0674 0.29713,0.11402 0.35149,0.236956 0.10478,0.236956 -0.0888,0 -0.20854,-0.07628 -0.26618,-0.169556 z m -6.53457,-3.972427 c -0.0597,-0.0966 -0.25437,-0.13762 -0.43252,-0.091 -0.178147,0.0465 -0.280654,0.0147 -0.227788,-0.0708 0.155847,-0.25217 -0.85769,-0.17759 -1.220579,0.0898 -0.300476,0.2214 -0.21975,0.24543 0.828285,0.24655 0.749342,8.8e-4 1.122682,-0.0611 1.052602,-0.17452 z"
           style="fill:#37efff;fill-opacity:0.815686;stroke-width:0.171513;filter:url(#filter63)"
           id="path1-61-5" /><path
           d="m 61.210566,-86.053574 c 0.05473,-3.938365 0.114898,-7.237852 0.133717,-7.332185 0.0219,-0.109865 1.376901,-0.15383 3.769646,-0.122306 3.67525,0.0484 3.738629,0.04325 3.933487,-0.320847 0.136616,-0.255276 0.139539,-0.3339 0.0094,-0.253473 -0.107474,0.06642 -0.188628,-0.0027 -0.188628,-0.160943 0,-0.152631 -0.07185,-0.233111 -0.159659,-0.178836 -0.08782,0.05426 -0.215511,0.008 -0.283771,-0.102139 -0.07751,-0.125413 -0.04976,-0.15486 0.07391,-0.07841 0.316124,0.19538 0.22876,-0.159895 -0.116054,-0.47195 -0.172738,-0.156325 -0.378066,-0.226176 -0.456281,-0.155215 -0.07822,0.07095 -0.08461,0.02913 -0.01418,-0.09289 0.160766,-0.278666 -0.215983,-0.756157 -0.478362,-0.606279 -0.107226,0.06127 -0.139599,0.05008 -0.07194,-0.02486 0.06767,-0.07495 -0.02453,-0.323769 -0.204807,-0.55299 -0.180304,-0.229213 -0.285291,-0.527602 -0.2333,-0.663086 0.09897,-0.257913 0.743873,-0.349556 0.743873,-0.105699 0,0.221283 1.043334,1.321863 1.210025,1.276424 0.08235,-0.02247 0.110413,0.06163 0.06235,0.186908 -0.119269,0.310812 0.372893,0.689228 0.722103,0.555228 0.230473,-0.08845 0.245411,-0.06269 0.07961,0.137055 -0.282907,0.34088 -0.102434,0.395067 1.226843,0.368355 1.070422,-0.02149 1.202289,-0.06713 1.761974,-0.6096 0.332727,-0.32249 0.569168,-0.679603 0.525428,-0.793587 -0.04375,-0.113985 0.05095,-0.309365 0.210432,-0.434175 0.26388,-0.206524 0.268663,-0.196081 0.05319,0.116099 -0.130222,0.188666 0.0039,0.09218 0.297732,-0.214393 0.541498,-0.564729 0.945325,-0.700275 1.141349,-0.383113 0.05925,0.09588 0.191502,0.122536 0.293891,0.05923 0.114734,-0.07086 0.1365,-0.03463 0.05674,0.09437 -0.07119,0.115183 -0.172121,0.166741 -0.224297,0.114562 -0.126375,-0.126373 -0.910501,0.945152 -0.810297,1.107285 0.04298,0.06953 -0.03676,0.22186 -0.177215,0.338429 -0.140457,0.116578 -0.255376,0.151947 -0.255376,0.07859 0,-0.07335 -0.154361,0.0062 -0.343027,0.177096 -0.188666,0.170746 -0.343027,0.414247 -0.343027,0.541126 0,0.126878 -0.122203,0.230687 -0.271563,0.230687 -0.365516,0 -0.219065,0.387003 0.16794,0.4438 0.168614,0.02478 0.357383,0.101677 0.419489,0.170951 0.0621,0.06926 -0.02215,0.07752 -0.187233,0.01829 -0.165079,-0.05923 -0.300146,-0.03428 -0.300146,0.0555 0,0.09984 1.581957,0.147703 4.073439,0.123256 3.518305,-0.03454 4.065645,-0.07504 4.016266,-0.297252 -0.03147,-0.141496 4.4e-5,-0.200051 0.06997,-0.13012 0.06993,0.06989 0.25002,0.03268 0.4002,-0.08276 0.210491,-0.161839 0.20508,-0.129818 -0.0236,0.139755 -0.259873,0.306355 -0.265652,0.380699 -0.04662,0.599744 0.210378,0.210387 0.251827,1.345351 0.261291,7.15524 0.0061,3.797864 -0.03531,6.980498 -0.09216,7.072514 -0.06534,0.105717 -3.864022,0.167318 -10.317847,0.167318 h -10.21444 z m 14.689685,2.042208 c 0,-1.211502 -0.05046,-3.141031 -0.112112,-4.287833 l -0.112116,-2.085081 h -5.524506 -5.524511 l -0.109067,0.795745 c -0.05999,0.437665 -0.109072,2.367184 -0.109072,4.287833 v 3.492087 h 5.745694 5.74569 z m 2.915725,-2.599621 c 0,-0.09433 0.08173,-0.17151 0.181634,-0.17151 0.0999,0 0.133936,0.07717 0.07563,0.17151 -0.0583,0.09433 -0.04283,0.17151 0.03438,0.17151 0.0772,0 0.232668,-0.147782 0.345465,-0.328403 0.262252,-0.419922 -4.86e-4,-0.649632 -0.719723,-0.629341 -0.358534,0.01012 -0.530343,0.111614 -0.574812,0.339592 -0.04599,0.235749 0.0097,0.297111 0.202506,0.22313 0.183528,-0.07042 0.236378,-0.02504 0.170562,0.146486 -0.05245,0.136692 -0.01,0.248536 0.09449,0.248536 0.104424,0 0.189866,-0.07717 0.189866,-0.17151 z m 0.520407,-3.098201 c 0.264249,-0.493751 -0.09304,-0.95596 -0.490332,-0.634332 -0.219809,0.177948 -0.242046,0.174369 -0.124883,-0.02016 0.09858,-0.163642 0.06905,-0.212163 -0.09571,-0.157302 -0.320596,0.106757 -0.40051,0.609654 -0.145669,0.916719 0.291522,0.351261 0.634957,0.309187 0.856597,-0.104963 z m -0.776463,0.01288 c -0.06008,-0.09722 0.0087,-0.125973 0.161393,-0.0674 0.297131,0.11402 0.351492,0.236956 0.104784,0.236956 -0.08877,0 -0.208543,-0.07628 -0.266177,-0.169556 z m -6.534575,-3.972429 c -0.05974,-0.09665 -0.254371,-0.137615 -0.432518,-0.09103 -0.178147,0.04653 -0.280654,0.01474 -0.227788,-0.07078 0.155847,-0.252167 -0.85769,-0.177592 -1.220579,0.08981 -0.300476,0.221407 -0.21975,0.245437 0.828285,0.246547 0.74934,8.88e-4 1.122685,-0.06109 1.0526,-0.174512 z"
           style="display:inline;fill:#4dd6ff;fill-opacity:0.796078;stroke-width:0.171513;filter:url(#filter26)"
           id="path1-61"
           transform="matrix(1.028053,0,0,1.0135351,-1.714347,1.3185617)" /></g><g
         id="g68"
         transform="matrix(0.60244406,0.39455089,-0.43193119,0.65952046,-3.2307051,-20.699508)"><path
           d="m 58.898387,-108.29012 c -0.619057,-0.1012 -0.693241,-0.16865 -0.783159,-0.71207 -0.18548,-1.12102 -0.757378,-1.69622 -1.36379,-1.37168 -0.385811,0.20648 -0.564084,0.71784 -0.673423,1.93164 -0.0065,0.0722 -2.30795,0.11075 -5.114337,0.0858 l -5.102515,-0.0454 0.06164,-3.17299 c 0.0339,-1.74514 0.130862,-3.19888 0.215458,-3.23052 0.0846,-0.0317 0.102817,-0.14004 0.0405,-0.24089 -0.0632,-0.10226 -0.03322,-0.13386 0.06777,-0.0715 0.237738,0.14694 1.672551,-0.67143 1.673619,-0.95456 4.86e-4,-0.12056 0.154813,-0.22706 0.343023,-0.23667 0.695625,-0.0355 0.788588,-0.0726 0.668853,-0.26629 -0.06918,-0.11195 -0.04769,-0.15184 0.04952,-0.0918 0.09455,0.0584 1.013347,-0.22254 2.041783,-0.6244 1.785197,-0.69755 2.405929,-0.80034 3.712546,-0.61473 0.435952,0.0619 1.158811,1.6251 1.158811,2.50591 v 0.73814 h 1.107059 1.107067 l 0.102332,-0.64317 c 0.341027,-2.14335 0.786083,-2.68629 2.228637,-2.71879 0.471665,-0.0107 0.934748,0.0316 1.029081,0.0937 0.09433,0.0622 0.711778,0.2954 1.372103,0.51824 0.660327,0.22284 1.842497,0.74078 2.62704,1.15096 0.784545,0.41017 1.37869,0.66851 1.320317,0.57406 -0.0615,-0.0995 0.0054,-0.12893 0.159067,-0.07 0.145858,0.0559 0.223811,0.16872 0.173228,0.25058 -0.05058,0.0819 0.200699,0.28683 0.558403,0.45551 l 0.650369,0.30673 v 3.05748 c 0,1.68162 -0.05502,3.14722 -0.122256,3.25692 -0.135732,0.22141 -8.079474,0.34063 -9.308745,0.13969 z m -3.590444,-0.86165 c -0.03934,-0.0637 0.102831,-0.47744 0.31591,-0.91955 0.213083,-0.44211 0.324781,-0.86648 0.248228,-0.94303 -0.07656,-0.0765 0.396581,-0.14991 1.051419,-0.16299 0.821578,-0.0164 1.178907,0.0379 1.152854,0.17522 -0.02079,0.10947 0.07801,0.17331 0.219512,0.14186 0.141502,-0.0314 0.200054,5e-5 0.130124,0.07 -0.06993,0.07 -0.0607,0.21143 0.02054,0.31444 0.08122,0.10301 0.240895,0.47672 0.354838,0.83047 l 0.207168,0.64318 h 4.274527 4.274528 v -2.47873 -2.47872 l -5.5313,0.0934 c -3.042212,0.0513 -7.383639,0.11665 -9.647615,0.14511 -2.263972,0.0284 -4.433459,0.063 -4.821077,0.0767 l -0.70476,0.025 -0.108708,1.15095 c -0.05979,0.63303 -0.109256,1.66799 -0.109931,2.29992 l -9.76e-4,1.14897 4.37324,-0.008 c 2.40528,-0.004 4.34106,-0.0603 4.301734,-0.12389 z m -5.244708,-0.1338 c -2.999792,-0.0886 -2.764521,0.0921 -2.707086,-2.07964 l 0.04863,-1.83906 3.516023,0.0199 c 3.930039,0.0222 4.016651,0.0299 3.763168,0.33536 -0.111514,0.13436 -0.133634,0.77607 -0.06025,1.7481 0.08745,1.15839 0.06244,1.56886 -0.10174,1.67033 -0.271717,0.16793 -1.895735,0.22077 -4.45874,0.14505 z m -1.20059,-2.63235 c -0.136038,-0.0841 -0.285927,-0.11428 -0.333097,-0.0671 -0.04715,0.0472 0.02554,0.15454 0.161583,0.23861 0.136034,0.0841 0.285923,0.11428 0.333092,0.0671 0.04715,-0.0472 -0.02554,-0.15455 -0.161578,-0.23862 z m 10.546524,2.18679 c -0.05656,-0.30657 -0.07935,-1.21345 -0.05065,-2.01528 l 0.05219,-1.45786 3.310184,-0.0466 c 1.820605,-0.0257 3.424672,0.0175 3.564596,0.0958 0.187612,0.10499 0.275738,0.57606 0.335631,1.79408 0.11168,2.27108 0.205128,2.21684 -3.604198,2.09203 -1.606088,-0.0527 -3.020645,-0.12901 -3.14346,-0.16975 -0.122815,-0.0408 -0.176147,0.003 -0.118513,0.0955 0.05763,0.0932 0.02656,0.16955 -0.06908,0.16955 -0.09563,0 -0.220145,-0.25085 -0.276701,-0.55742 z m 1.630909,-1.92349 c 0,-0.0439 -0.173655,-0.16388 -0.385903,-0.26673 -0.370577,-0.17958 -0.37268,-0.17641 -0.05298,0.0797 0.349933,0.28035 0.43888,0.31824 0.43888,0.187 z m -9.524379,-3.56032 c 0.919675,-0.90284 1.977239,-1.39077 2.545869,-1.17457 0.530925,0.20185 0.969271,0.80938 0.995446,1.37964 0.01229,0.26741 0.04899,0.32345 0.09584,0.14627 0.108416,-0.41001 -0.271723,-1.71501 -0.464808,-1.59568 -0.08885,0.0549 -0.115992,-0.0188 -0.06031,-0.16396 0.224986,-0.5863 -1.657026,-0.75706 -2.318313,-0.21034 -0.132411,0.10948 -0.27079,0.17176 -0.307503,0.1384 -0.03671,-0.0334 -0.314278,0.0319 -0.616814,0.14487 -1.378956,0.51518 -1.819263,0.74809 -1.719477,0.90953 0.05917,0.0957 0.0238,0.12228 -0.07865,0.059 -0.224038,-0.13846 -1.430252,0.40574 -1.314483,0.59305 0.04467,0.0723 -0.0092,0.18725 -0.119605,0.25551 -0.125414,0.0775 -0.154862,0.0497 -0.07843,-0.0739 0.172902,-0.27976 -0.11371,-0.2458 -0.508258,0.0602 -0.302151,0.23435 -0.166938,0.25603 1.462566,0.23451 l 1.795493,-0.0237 z m -0.194702,-0.21146 c 0,-0.13734 0.06558,-0.20919 0.145728,-0.15965 0.08015,0.0496 0.101321,0.1619 0.04706,0.24973 -0.13869,0.2244 -0.192774,0.19913 -0.192774,-0.0901 z m 3.030067,0.63093 c 0,-0.0734 -0.122334,-0.30801 -0.271848,-0.52148 -0.318081,-0.45413 -0.742062,-0.38356 -1.499319,0.24951 l -0.484826,0.40531 h 1.127999 c 0.620398,0 1.127994,-0.06 1.127994,-0.13334 z m 5.307771,-0.42407 c 0.130668,-0.30659 0.254459,-0.6346 0.275088,-0.72894 0.02064,-0.0943 0.05605,-0.2294 0.07873,-0.30016 0.02268,-0.0708 0.05087,-0.19937 0.06266,-0.28585 0.0118,-0.0865 0.0917,-0.22154 0.177569,-0.30014 0.09259,-0.0847 0.09859,-0.0438 0.01477,0.10061 -0.108621,0.18709 -0.0653,0.21639 0.186888,0.12638 0.24849,-0.0887 0.224058,-0.0293 -0.100496,0.24408 -0.346179,0.29166 -0.362699,0.33688 -0.08576,0.23474 0.188667,-0.0696 0.458796,-0.12016 0.600298,-0.11241 0.71507,0.0392 1.160701,0.13253 1.100265,0.23044 -0.107188,0.17364 0.374116,0.50175 0.529507,0.36097 0.07719,-0.0699 0.09121,-0.0409 0.03112,0.0643 -0.148625,0.26057 0.493824,0.81841 0.75596,0.65639 0.133237,-0.0823 0.164526,-0.0574 0.08644,0.069 -0.07779,0.12588 0.01001,0.19801 0.24089,0.19801 0.24497,0 0.32133,-0.0698 0.23447,-0.21438 -0.09411,-0.15664 -0.05368,-0.15351 0.150098,0.0116 0.184242,0.14932 0.661098,0.20886 1.405029,0.17545 0.619368,-0.0278 1.126129,-0.0703 1.126129,-0.0945 0,-0.15954 -1.76549,-0.89638 -1.919575,-0.80115 -0.108766,0.0672 -0.143998,0.0414 -0.08151,-0.0597 0.140924,-0.22802 -0.825881,-0.63605 -1.102304,-0.46521 -0.125277,0.0774 -0.164044,0.0571 -0.09722,-0.0511 0.122494,-0.19818 -1.190091,-0.7934 -1.426902,-0.64704 -0.08006,0.0495 -0.17145,0.0242 -0.203089,-0.0561 -0.03167,-0.0804 -0.276239,-0.19967 -0.543557,-0.26521 -0.274719,-0.0674 -0.444756,-0.0524 -0.391099,0.0344 0.05222,0.0845 -0.0781,0.12054 -0.289599,0.0801 -0.521353,-0.0996 -1.37559,0.57884 -1.264343,1.00424 0.04599,0.17594 0.01369,0.27665 -0.07187,0.22378 -0.08554,-0.0528 -0.155517,0.17857 -0.155517,0.5143 0,0.77655 0.356624,0.80447 0.676909,0.053 z m 2.322834,0.3831 c -0.05925,-0.0959 -0.191502,-0.12253 -0.293891,-0.0592 -0.108091,0.0668 -0.137069,0.0356 -0.0691,-0.0743 0.174514,-0.28237 -0.430615,-0.53261 -0.878747,-0.3634 -0.212247,0.0801 -0.385903,0.26398 -0.385903,0.40852 0,0.20142 0.202638,0.26279 0.867684,0.26279 0.544072,0 0.827507,-0.065 0.759956,-0.17431 z"
           style="fill:#38f0ff;fill-opacity:0.992157;stroke-width:0.171513;filter:url(#filter64)"
           id="path1-1-0" /><path
           d="m 58.898384,-108.29015 c -0.619057,-0.1012 -0.693241,-0.16865 -0.783159,-0.71207 -0.18548,-1.12102 -0.757378,-1.69622 -1.36379,-1.37168 -0.385811,0.20648 -0.564084,0.71784 -0.673423,1.93164 -0.0065,0.0722 -2.30795,0.11075 -5.114337,0.0858 l -5.102515,-0.0454 0.06164,-3.17299 c 0.0339,-1.74514 0.130862,-3.19888 0.215458,-3.23052 0.0846,-0.0317 0.102817,-0.14004 0.0405,-0.24089 -0.0632,-0.10226 -0.03322,-0.13386 0.06777,-0.0715 0.237738,0.14694 1.672551,-0.67143 1.673619,-0.95456 4.86e-4,-0.12056 0.154813,-0.22706 0.343023,-0.23667 0.695625,-0.0355 0.788588,-0.0726 0.668853,-0.26629 -0.06918,-0.11195 -0.04769,-0.15184 0.04952,-0.0918 0.09455,0.0584 1.013347,-0.22254 2.041783,-0.6244 1.785197,-0.69755 2.405929,-0.80034 3.712546,-0.61473 0.435952,0.0619 1.158811,1.6251 1.158811,2.50591 v 0.73814 h 1.107059 1.107067 l 0.102332,-0.64317 c 0.341027,-2.14335 0.786083,-2.68629 2.228637,-2.71879 0.471665,-0.0107 0.934748,0.0316 1.029081,0.0937 0.09433,0.0622 0.711778,0.2954 1.372103,0.51824 0.660327,0.22284 1.842497,0.74078 2.62704,1.15096 0.784545,0.41017 1.37869,0.66851 1.320317,0.57406 -0.0615,-0.0995 0.0054,-0.12893 0.159067,-0.07 0.145858,0.0559 0.223811,0.16872 0.173228,0.25058 -0.05058,0.0819 0.200699,0.28683 0.558403,0.45551 l 0.650369,0.30673 v 3.05748 c 0,1.68162 -0.05502,3.14722 -0.122256,3.25692 -0.135732,0.22141 -8.079474,0.34063 -9.308745,0.13969 z m -3.590444,-0.86165 c -0.03934,-0.0637 0.102831,-0.47744 0.31591,-0.91955 0.213083,-0.44211 0.324781,-0.86648 0.248228,-0.94303 -0.07656,-0.0765 0.396581,-0.14991 1.051419,-0.16299 0.821578,-0.0164 1.178907,0.0379 1.152854,0.17522 -0.02079,0.10947 0.07801,0.17331 0.219512,0.14186 0.141502,-0.0314 0.200054,5e-5 0.130124,0.07 -0.06993,0.07 -0.0607,0.21143 0.02054,0.31444 0.08122,0.10301 0.240895,0.47672 0.354838,0.83047 l 0.207168,0.64318 h 4.274527 4.274528 v -2.47873 -2.47872 l -5.5313,0.0934 c -3.042212,0.0513 -7.383639,0.11665 -9.647615,0.14511 -2.263972,0.0284 -4.433459,0.063 -4.821077,0.0767 l -0.70476,0.025 -0.108708,1.15095 c -0.05979,0.63303 -0.109256,1.66799 -0.109931,2.29992 l -9.76e-4,1.14897 4.37324,-0.008 c 2.40528,-0.004 4.34106,-0.0603 4.301734,-0.12389 z m -5.244708,-0.1338 c -2.999792,-0.0886 -2.764521,0.0921 -2.707086,-2.07964 l 0.04863,-1.83906 3.516023,0.0199 c 3.930039,0.0222 4.016651,0.0299 3.763168,0.33536 -0.111514,0.13436 -0.133634,0.77607 -0.06025,1.7481 0.08745,1.15839 0.06244,1.56886 -0.10174,1.67033 -0.271717,0.16793 -1.895735,0.22077 -4.45874,0.14505 z m -1.20059,-2.63235 c -0.136038,-0.0841 -0.285927,-0.11428 -0.333097,-0.0671 -0.04715,0.0472 0.02554,0.15454 0.161583,0.23861 0.136034,0.0841 0.285923,0.11428 0.333092,0.0671 0.04715,-0.0472 -0.02554,-0.15455 -0.161578,-0.23862 z m 10.546524,2.18679 c -0.05656,-0.30657 -0.07935,-1.21345 -0.05065,-2.01528 l 0.05219,-1.45786 3.310184,-0.0466 c 1.820605,-0.0257 3.424672,0.0175 3.564596,0.0958 0.187612,0.10499 0.275738,0.57606 0.335631,1.79408 0.11168,2.27108 0.205128,2.21684 -3.604198,2.09203 -1.606088,-0.0527 -3.020645,-0.12901 -3.14346,-0.16975 -0.122815,-0.0408 -0.176147,0.003 -0.118513,0.0955 0.05763,0.0932 0.02656,0.16955 -0.06908,0.16955 -0.09563,0 -0.220145,-0.25085 -0.276701,-0.55742 z m 1.630909,-1.92349 c 0,-0.0439 -0.173655,-0.16388 -0.385903,-0.26673 -0.370577,-0.17958 -0.37268,-0.17641 -0.05298,0.0797 0.349933,0.28035 0.43888,0.31824 0.43888,0.187 z m -9.524379,-3.56032 c 0.919675,-0.90284 1.977239,-1.39077 2.545869,-1.17457 0.530925,0.20185 0.969271,0.80938 0.995446,1.37964 0.01229,0.26741 0.04899,0.32345 0.09584,0.14627 0.108416,-0.41001 -0.271723,-1.71501 -0.464808,-1.59568 -0.08885,0.0549 -0.115992,-0.0188 -0.06031,-0.16396 0.224986,-0.5863 -1.657026,-0.75706 -2.318313,-0.21034 -0.132411,0.10948 -0.27079,0.17176 -0.307503,0.1384 -0.03671,-0.0334 -0.314278,0.0319 -0.616814,0.14487 -1.378956,0.51518 -1.819263,0.74809 -1.719477,0.90953 0.05917,0.0957 0.0238,0.12228 -0.07865,0.059 -0.224038,-0.13846 -1.430252,0.40574 -1.314483,0.59305 0.04467,0.0723 -0.0092,0.18725 -0.119605,0.25551 -0.125414,0.0775 -0.154862,0.0497 -0.07843,-0.0739 0.172902,-0.27976 -0.11371,-0.2458 -0.508258,0.0602 -0.302151,0.23435 -0.166938,0.25603 1.462566,0.23451 l 1.795493,-0.0237 z m -0.194702,-0.21146 c 0,-0.13734 0.06558,-0.20919 0.145728,-0.15965 0.08015,0.0496 0.101321,0.1619 0.04706,0.24973 -0.13869,0.2244 -0.192774,0.19913 -0.192774,-0.0901 z m 3.030067,0.63093 c 0,-0.0734 -0.122334,-0.30801 -0.271848,-0.52148 -0.318081,-0.45413 -0.742062,-0.38356 -1.499319,0.24951 l -0.484826,0.40531 h 1.127999 c 0.620398,0 1.127994,-0.06 1.127994,-0.13334 z m 5.307771,-0.42407 c 0.130668,-0.30659 0.254459,-0.6346 0.275088,-0.72894 0.02064,-0.0943 0.05605,-0.2294 0.07873,-0.30016 0.02268,-0.0708 0.05087,-0.19937 0.06266,-0.28585 0.0118,-0.0865 0.0917,-0.22154 0.177569,-0.30014 0.09259,-0.0847 0.09859,-0.0438 0.01477,0.10061 -0.108621,0.18709 -0.0653,0.21639 0.186888,0.12638 0.24849,-0.0887 0.224058,-0.0293 -0.100496,0.24408 -0.346179,0.29166 -0.362699,0.33688 -0.08576,0.23474 0.188667,-0.0696 0.458796,-0.12016 0.600298,-0.11241 0.71507,0.0392 1.160701,0.13253 1.100265,0.23044 -0.107188,0.17364 0.374116,0.50175 0.529507,0.36097 0.07719,-0.0699 0.09121,-0.0409 0.03112,0.0643 -0.148625,0.26057 0.493824,0.81841 0.75596,0.65639 0.133237,-0.0823 0.164526,-0.0574 0.08644,0.069 -0.07779,0.12588 0.01001,0.19801 0.24089,0.19801 0.24497,0 0.32133,-0.0698 0.23447,-0.21438 -0.09411,-0.15664 -0.05368,-0.15351 0.150098,0.0116 0.184242,0.14932 0.661098,0.20886 1.405029,0.17545 0.619368,-0.0278 1.126129,-0.0703 1.126129,-0.0945 0,-0.15954 -1.76549,-0.89638 -1.919575,-0.80115 -0.108766,0.0672 -0.143998,0.0414 -0.08151,-0.0597 0.140924,-0.22802 -0.825881,-0.63605 -1.102304,-0.46521 -0.125277,0.0774 -0.164044,0.0571 -0.09722,-0.0511 0.122494,-0.19818 -1.190091,-0.7934 -1.426902,-0.64704 -0.08006,0.0495 -0.17145,0.0242 -0.203089,-0.0561 -0.03167,-0.0804 -0.276239,-0.19967 -0.543557,-0.26521 -0.274719,-0.0674 -0.444756,-0.0524 -0.391099,0.0344 0.05222,0.0845 -0.0781,0.12054 -0.289599,0.0801 -0.521353,-0.0996 -1.37559,0.57884 -1.264343,1.00424 0.04599,0.17594 0.01369,0.27665 -0.07187,0.22378 -0.08554,-0.0528 -0.155517,0.17857 -0.155517,0.5143 0,0.77655 0.356624,0.80447 0.676909,0.053 z m 2.322834,0.3831 c -0.05925,-0.0959 -0.191502,-0.12253 -0.293891,-0.0592 -0.108091,0.0668 -0.137069,0.0356 -0.0691,-0.0743 0.174514,-0.28237 -0.430615,-0.53261 -0.878747,-0.3634 -0.212247,0.0801 -0.385903,0.26398 -0.385903,0.40852 0,0.20142 0.202638,0.26279 0.867684,0.26279 0.544072,0 0.827507,-0.065 0.759956,-0.17431 z"
           style="display:inline;fill:#4dd6ff;fill-opacity:0.796078;stroke-width:0.171513;filter:url(#filter29)"
           id="path1-1" /></g></g></g></svg>
