<?xml version="1.0" encoding="UTF-8" standalone="no"?>
<!-- Created with Inkscape (http://www.inkscape.org/) -->

<svg
   width="173.12953mm"
   height="169.01529mm"
   viewBox="0 0 173.12953 169.01529"
   version="1.1"
   id="svg1"
   xml:space="preserve"
   xmlns="http://www.w3.org/2000/svg"
   xmlns:svg="http://www.w3.org/2000/svg"><defs
     id="defs1" /><g
     id="layer1"
     transform="translate(5.4172293,-131.20956)"><g
       id="layer-MC0-0"
       transform="matrix(0.26458333,0,0,0.26458333,54.130475,153.10889)"><g
         id="layer1-6"
         transform="matrix(3.7795276,0,0,3.7795276,-294.73863,-324.63002)"><rect
           style="fill:#1a1a1a;fill-opacity:1;fill-rule:evenodd;stroke:#88878c;stroke-width:0.330575;stroke-linecap:square;stroke-linejoin:round;paint-order:fill markers stroke"
           id="rect3"
           width="172.79897"
           height="168.68471"
           x="18.600512"
           y="64.157661" /><g
           id="layer1-8"
           transform="translate(-6.0567172e-6,-18.007418)"
           style="fill:#ffffff"><path
             style="fill:#ffffff"
             d="m 65.064283,184.51941 c -1.549,-0.44511 -4.230436,-3.60592 -5.959787,-7.02525 -1.703235,-3.36769 -2.636158,-8.73432 -2.056032,-11.82731 0.857746,-4.57313 3.972137,-7.79359 7.982271,-8.25412 1.231967,-0.14149 1.854299,-0.0361 3.867861,0.65532 1.319815,0.45316 2.630634,0.82393 2.912932,0.82393 0.282297,0 1.491984,-0.35719 2.688194,-0.79375 3.560284,-1.29935 6.640228,-0.98645 9.152586,0.92982 1.600457,1.22073 1.650778,1.55747 0.401408,2.6862 -1.51025,1.36442 -2.417291,3.26454 -2.568105,5.37981 -0.148958,2.08924 0.196802,3.47242 1.274874,5.10001 0.71938,1.08606 2.466433,2.65062 3.252324,2.91258 0.329182,0.10973 -1.285165,3.60776 -2.498323,5.41346 -1.099958,1.63722 -2.571313,3.1904 -3.468496,3.66138 -1.039603,0.54576 -3.137145,0.46424 -4.621413,-0.1796 -2.038417,-0.88422 -3.881449,-0.93823 -5.908914,-0.17316 -2.193458,0.82771 -3.350013,1.00716 -4.45138,0.69068 z m 31.306589,-0.28605 c -1.35309,-0.47973 -2.179055,-1.21827 -2.821563,-2.52292 -0.603864,-1.22617 -0.620032,-1.45644 -0.705824,-10.05232 l -0.0878,-8.79739 H 90.925256 89.09483 v -1.85209 -1.85208 h 1.852083 1.852083 v -3.175 -3.175 h 2.513542 2.513542 v 3.04271 3.04271 h 2.38125 2.38125 v 1.98437 1.98438 h -2.38125 -2.38125 v 8.09014 8.09015 l 0.773397,0.77339 c 0.685117,0.68512 0.956928,0.7734 2.381253,0.7734 h 1.60785 v 1.98438 1.98437 l -2.711979,-0.0209 c -1.491589,-0.0115 -3.069167,-0.14752 -3.505729,-0.30231 z m 17.997528,-0.13982 c -0.10067,-0.25466 -2.08553,-5.87424 -4.41079,-12.48796 -2.32526,-6.61372 -4.28672,-12.12036 -4.3588,-12.23698 -0.0721,-0.11662 1.04824,-0.21204 2.48959,-0.21204 h 2.62062 l 3.13292,10.18646 c 1.7231,5.60255 3.20448,10.18646 3.29195,10.18646 0.1251,0 3.89146,-11.95472 6.02258,-19.11615 l 0.374,-1.25677 h 2.52194 c 1.90351,0 2.49329,0.0811 2.40508,0.33073 -0.0643,0.1819 -2.06797,5.8969 -4.45263,12.7 l -4.33574,12.36927 h -2.55884 c -2.19087,0 -2.58516,-0.0666 -2.74188,-0.46302 z m 24.4681,-4.82865 v -5.29166 h -5.02709 -5.02708 v -2.24896 -2.24896 h 5.02708 5.02709 v -5.15937 -5.15938 h 2.11666 2.11667 v 5.15938 5.15937 h 5.02708 5.02709 v 2.24896 2.24896 h -5.02709 -5.02708 v 5.29166 5.29167 h -2.11667 -2.11666 z M 71.632329,155.82503 c 0,-3.15237 2.911621,-6.50616 6.314712,-7.27368 l 0.898946,-0.20275 -0.143131,1.38682 c -0.179185,1.73613 -1.014943,3.542 -2.20756,4.77 -1.119349,1.15256 -2.113288,1.68788 -3.675965,1.97982 l -1.187002,0.22175 z"
             id="path3-5" /></g></g></g></g></svg>
