<?xml version="1.0" encoding="UTF-8" standalone="no"?>
<!-- Created with Inkscape (http://www.inkscape.org/) -->

<svg
   width="173.12953mm"
   height="169.01529mm"
   viewBox="0 0 173.12953 169.01529"
   version="1.1"
   id="svg1"
   xml:space="preserve"
   xmlns:inkscape="http://www.inkscape.org/namespaces/inkscape"
   xmlns:sodipodi="http://sodipodi.sourceforge.net/DTD/sodipodi-0.dtd"
   xmlns:xlink="http://www.w3.org/1999/xlink"
   xmlns="http://www.w3.org/2000/svg"
   xmlns:svg="http://www.w3.org/2000/svg"><sodipodi:namedview
     id="namedview1"
     pagecolor="#ffffff"
     bordercolor="#000000"
     borderopacity="0.25"
     inkscape:showpageshadow="2"
     inkscape:pageopacity="0.0"
     inkscape:pagecheckerboard="0"
     inkscape:deskcolor="#d1d1d1"
     inkscape:document-units="mm" /><defs
     id="defs1"><linearGradient
       id="linearGradient1"
       inkscape:collect="always"><stop
         style="stop-color:#7529ee;stop-opacity:1;"
         offset="0"
         id="stop1" /><stop
         style="stop-color:#3483da;stop-opacity:1;"
         offset="0.48228884"
         id="stop3" /><stop
         style="stop-color:#01c1cc;stop-opacity:1;"
         offset="1"
         id="stop2" /></linearGradient><linearGradient
       inkscape:collect="always"
       xlink:href="#linearGradient1"
       id="linearGradient2"
       x1="163.30896"
       y1="518.4162"
       x2="39.691711"
       y2="315.28516"
       gradientUnits="userSpaceOnUse"
       gradientTransform="matrix(0.54322496,0,0,0.54322496,47.961376,-76.75846)" /></defs><g
     inkscape:label="Capa 1"
     inkscape:groupmode="layer"
     id="layer1"
     transform="translate(-18.435225,-63.992376)"><rect
       style="fill:#ffffff;fill-opacity:1;fill-rule:evenodd;stroke:#88878c;stroke-width:0.330575;stroke-linecap:square;stroke-linejoin:round;paint-order:fill markers stroke"
       id="rect3"
       width="172.79897"
       height="168.68471"
       x="18.600512"
       y="64.157661" /><path
       style="fill:url(#linearGradient2);fill-opacity:1;stroke-width:0.543225"
       d="m 98.141636,212.78263 c -12.961435,-1.48099 -24.645256,-6.4493 -34.590604,-14.70894 -1.772695,-1.47223 -5.909971,-5.57858 -7.61847,-7.56152 -8.459834,-9.81877 -13.804264,-22.28723 -15.186397,-35.4296 -0.319443,-3.0375 -0.362415,-9.63833 -0.08154,-12.52599 1.054718,-10.84371 4.673119,-21.06487 10.583313,-29.89549 4.780723,-7.14303 11.074253,-13.3931 18.274971,-18.148785 8.290653,-5.475528 16.924284,-8.703001 27.085631,-10.125305 2.984549,-0.417751 10.98156,-0.585287 14.12758,-0.295966 10.78025,0.991391 21.3558,4.714193 30.12095,10.603159 7.63878,5.1322 14.29665,12.028497 19.14102,19.826457 4.08188,6.57059 6.9573,13.88795 8.45656,21.52024 0.90522,4.60819 1.06937,6.53848 1.06747,12.55228 -0.002,4.98234 -0.0601,6.1453 -0.43883,8.71951 -1.84871,12.56572 -6.74732,23.48526 -14.87288,33.15332 -0.31005,0.3689 -2.07871,2.17988 -3.93035,4.02439 -10.44146,10.40124 -23.60479,16.65864 -38.47596,18.29017 -3.31239,0.3634 -10.49061,0.36449 -13.662459,0.002 z M 69.817719,161.8997 c 2.969984,-0.9488 6.098555,-3.60881 7.874354,-6.69504 0.453292,-0.78779 0.620384,-0.9572 0.66156,-0.67073 0.0303,0.21081 0.243878,1.01625 0.474621,1.78988 0.541101,1.81419 1.403604,2.75769 2.925342,3.20007 2.200157,0.6396 4.339761,-0.35393 6.386726,-2.96569 l 0.36604,-0.46704 0.24205,0.75449 c 0.595773,1.85708 1.796319,2.76695 3.644092,2.76177 1.923078,-0.005 3.579828,-0.9743 4.99639,-2.92201 l 0.525907,-0.7231 0.126811,0.81892 c 0.333926,2.15641 0.906908,2.83111 2.404288,2.83111 1.31355,0 1.58414,-0.32768 2.29457,-2.77875 1.31076,-4.52226 4.57224,-10.17645 6.66084,-11.54739 0.34682,-0.22765 0.48871,-0.23671 0.71864,-0.0459 0.41747,0.34647 0.36338,0.9484 -0.4074,4.53324 -1.15468,5.37037 -0.9386,7.8628 0.79639,9.18615 1.03417,0.7888 2.72214,0.87863 4.03254,0.21459 1.70091,-0.86191 3.58075,-3.18811 5.01217,-6.20226 0.37165,-0.78261 0.69919,-1.39812 0.72785,-1.36779 0.0287,0.0303 0.19379,0.81506 0.36697,1.74385 0.53293,2.85828 1.4653,5.08131 2.48486,5.92463 0.45674,0.37779 1.3707,0.43479 2.16,0.13469 1.99932,-0.76013 5.54692,-4.90951 7.74153,-9.05467 l 0.69178,-1.30665 1.20908,-0.0773 c 0.67641,-0.0433 1.5503,-0.24611 1.98363,-0.4605 0.42601,-0.21077 0.797,-0.36077 0.82443,-0.33334 0.0274,0.0274 -0.0725,0.40507 -0.22206,0.83919 -0.14956,0.43412 -0.36069,1.33624 -0.46916,2.00471 -0.72652,4.4773 0.69113,7.98581 3.4673,8.5812 2.03278,0.43594 4.11165,-0.46358 5.69207,-2.46295 l 0.7194,-0.91011 0.52195,1.11097 c 0.29139,0.62022 0.80351,1.32572 1.15934,1.59712 1.39981,1.06769 3.72301,0.91279 5.58945,-0.37268 2.26303,-1.55861 3.78766,-4.86139 2.85729,-6.18969 -0.40606,-0.57973 -0.60863,-0.53615 -0.91517,0.19691 -0.64221,1.53581 -1.39409,2.89353 -1.98406,3.58278 -0.69259,0.80913 -1.61767,1.15445 -2.07526,0.77467 -0.9341,-0.77523 -0.39373,-4.589 1.68007,-11.85748 0.71704,-2.51314 0.7624,-2.80009 0.51285,-3.2442 -0.34986,-0.62261 -1.09466,-0.81877 -2.13494,-0.56227 -1.03993,0.25642 -1.76532,0.76101 -2.44719,1.7023 l -0.53734,0.74178 -0.45171,-0.90747 c -0.6261,-1.25781 -1.4145,-1.68046 -3.13465,-1.68046 -1.05886,0 -1.57543,0.10963 -2.4521,0.52039 -1.05399,0.49386 -1.4203,0.81874 -4.24289,3.76321 -1.14133,1.1906 -2.23164,1.75299 -3.39857,1.75299 h -0.86976 l 0.54519,-1.61139 c 1.01384,-2.99648 1.11677,-5.20499 0.31044,-6.66092 -0.56627,-1.02247 -1.34941,-1.37941 -2.79679,-1.27472 -1.34154,0.097 -1.89554,0.42096 -2.8525,1.66783 -0.76162,0.99236 -1.0701,2.04147 -1.07712,3.66316 -0.008,1.94233 0.48984,3.14632 1.85617,4.48532 l 1.15473,1.13164 -0.79671,1.55591 c -1.62486,3.17322 -3.71879,5.8585 -4.56836,5.8585 -0.90291,0 -1.44332,-3.1089 -1.48236,-8.52788 -0.0144,-2.00261 0.0134,-4.17645 0.0617,-4.83075 0.0483,-0.6543 0.0375,-1.24009 -0.0242,-1.30175 -0.21192,-0.21192 -1.48042,-0.33389 -2.15544,-0.20725 -0.3717,0.0697 -0.94083,0.34979 -1.26476,0.62235 -0.97416,0.81971 -1.33466,1.78336 -1.62406,4.34122 -0.27485,2.42935 -0.37994,2.8577 -1.20753,4.92148 -1.22751,3.06111 -3.3999,5.4908 -4.52372,5.05955 -0.86513,-0.33198 -0.79308,-2.22983 0.25028,-6.59265 1.22028,-5.10259 0.94944,-7.17841 -1.07212,-8.21701 -1.81826,-0.93415 -5.18213,1.36844 -7.75341,5.30726 -1.13927,1.74518 -1.21547,1.82697 -1.04647,1.12336 0.36807,-1.53245 0.50742,-3.66957 0.30337,-4.65248 -0.29205,-1.40679 -0.87836,-1.86902 -2.23015,-1.75818 -0.54364,0.0446 -1.21198,0.22752 -1.48519,0.40654 -0.43616,0.28578 -0.49675,0.45567 -0.49675,1.39287 0,1.37977 -0.637738,4.49486 -1.324956,6.47185 -1.583186,4.55452 -3.607938,7.39966 -5.265996,7.39966 -1.401946,0 -1.114053,-3.4941 0.879116,-10.66965 1.253467,-4.51257 1.196909,-5.04464 -0.53623,-5.04464 -1.335742,0 -2.47295,0.62605 -3.226631,1.77631 -0.424958,0.64857 -0.640046,0.66179 -0.793895,0.0488 -0.0655,-0.26099 -0.447531,-0.77125 -0.848948,-1.13391 -1.197419,-1.08179 -3.194697,-1.12487 -5.180594,-0.11174 -1.849637,0.94361 -4.092471,3.74911 -5.073581,6.34641 -2.266232,5.99941 -5.456197,9.67826 -9.370919,10.80709 -1.462097,0.42161 -3.48187,0.30631 -4.823765,-0.27537 -3.030213,-1.31351 -4.756924,-5.30523 -4.56739,-10.55865 0.175601,-4.86723 2.095179,-9.41967 5.363733,-12.72054 1.567312,-1.58281 2.615791,-2.30713 4.206237,-2.90577 2.308097,-0.86877 4.318746,-0.4235 5.227575,1.15766 0.38958,0.67779 0.432439,0.96628 0.37012,2.49129 -0.06197,1.5165 -0.159813,1.91788 -0.81036,3.32438 -0.819252,1.77124 -0.780492,2.18935 0.212181,2.28876 0.835565,0.0837 2.55725,-0.87596 3.269022,-1.8221 2.529616,-3.36255 1.619591,-7.63497 -1.990309,-9.34417 -1.491159,-0.70603 -2.895165,-0.92739 -5.130794,-0.80893 -5.840496,0.30948 -11.157723,4.2821 -14.078728,10.51853 -2.480377,5.29569 -2.50693,11.99825 -0.06605,16.67227 1.114331,2.13382 3.404138,4.10904 5.623747,4.8511 2.189057,0.73185 4.989266,0.76454 7.12221,0.0832 z m 14.287754,-5.3491 c -2.029087,-1.59608 -0.719697,-8.7533 2.143911,-11.71877 0.961854,-0.99607 1.704083,-1.28855 2.430275,-0.95768 0.801515,0.36519 1.090237,1.39378 0.974966,3.47337 -0.177336,3.19927 -1.461248,6.82491 -2.985852,8.43175 -1.069412,1.1271 -1.822807,1.3538 -2.5633,0.77133 z m 58.656727,0.0909 c -1.62367,-0.89621 -1.43497,-5.48303 0.38235,-9.294 1.65971,-3.48044 4.09596,-4.75847 4.84317,-2.54067 0.75609,2.24414 -0.39752,7.53746 -2.25136,10.33041 -1.00486,1.51388 -2.0234,2.02903 -2.97416,1.50426 z m -10.59855,-11.54572 c -0.52254,-1.06646 -0.61381,-3.58169 -0.16166,-4.45501 0.67141,-1.29682 1.59262,-0.8477 1.59262,0.77645 0,1.40689 -0.6325,4.3972 -0.93008,4.3972 -0.0818,0 -0.30721,-0.32339 -0.50088,-0.71864 z"
       id="path1" /></g></svg>
