<?xml version="1.0" encoding="UTF-8" standalone="no"?>
<!-- Created with Inkscape (http://www.inkscape.org/) -->

<svg
   version="1.1"
   id="svg422"
   width="150.61948"
   height="133.68594"
   viewBox="0 0 150.61948 133.68594"
   xml:space="preserve"
   xmlns="http://www.w3.org/2000/svg"
   xmlns:svg="http://www.w3.org/2000/svg"><defs
     id="defs426" /><g
     id="layer-MC0"
     transform="translate(100.34775,-172.97473)"><rect
       style="fill:#f47521;fill-opacity:1;fill-rule:evenodd;stroke-width:1.91622;stroke-linecap:round;paint-order:fill markers stroke"
       id="rect3"
       width="150.61948"
       height="133.68593"
       x="-100.34775"
       y="172.97473" /><path
       style="fill:#ffffff;stroke-width:0.705685"
       d="m -28.095334,263.38844 c -8.114699,-1.34179 -15.579517,-6.94751 -19.2104,-14.42606 -2.038096,-4.19788 -2.655009,-6.90171 -2.655009,-11.63649 0,-5.92757 1.799364,-11.12261 5.481853,-15.82696 3.437161,-4.39096 8.79146,-7.92881 14.083597,-9.30571 3.522311,-0.91644 10.483341,-0.9182 13.74846,-0.004 10.2462329,2.8705 17.7769279,11.15866 19.4450869,21.40093 0.775481,4.76133 0.393648,6.13297 -0.59933,2.15297 -2.02820902,-8.12934 -7.478331,-14.02402 -15.3759149,-16.6301 -8.16382,-2.69394 -17.121034,-0.55353 -23.363569,5.58294 -8.021309,7.88503 -8.975994,20.11571 -2.289173,29.32723 3.310306,4.56016 7.803324,7.47561 13.722665,8.90442 3.462863,0.83586 3.478661,0.84586 1.306868,0.82655 -1.209099,-0.0107 -3.141909,-0.17556 -4.295134,-0.36625 z m 3.363761,-3.83539 c -4.392684,-1.5837 -6.899882,-3.41949 -9.459803,-6.92653 -4.538284,-6.21737 -4.538284,-15.01449 0,-21.23187 3.741443,-5.12571 8.886479,-7.73841 15.257696,-7.748 4.158989,-0.006 9.9803139,1.74297 8.171145,2.45532 -1.440223,0.56708 -3.58919,2.92521 -4.275418,4.69155 -2.021407,5.20304 1.967444,11.02202 7.5345519,10.99147 1.915362,-0.0105 4.916944,-1.19004 5.850608,-2.29913 1.21330798,-1.44126 1.48208198,-0.76365 1.30142598,3.28108 -0.148969,3.33529 -0.401586,4.46348 -1.52420298,6.80719 -1.960534,4.09307 -4.837934,7.00923 -8.8294979,8.94846 -3.048892,1.48124 -3.673085,1.62412 -7.549898,1.72826 -3.259748,0.0876 -4.740843,-0.072 -6.476607,-0.6978 z"
       id="path3" /><text
       xml:space="preserve"
       style="font-weight:bold;font-size:16.0465px;font-family:'Gill Sans MT';-inkscape-font-specification:'Gill Sans MT, Bold';text-align:center;text-anchor:middle;fill:#ffffff;fill-opacity:1;fill-rule:evenodd;stroke-width:1.18343;stroke-linecap:round;paint-order:fill markers stroke"
       x="-26.308119"
       y="245.1028"
       id="text3"
       transform="scale(0.8742405,1.14385)"><tspan
         id="tspan3"
         x="-26.308121"
         y="245.1028"
         style="stroke-width:1.18343">crunchyroll</tspan></text></g></svg>
