<?xml version="1.0" encoding="UTF-8" standalone="no"?>
<!-- Created with Inkscape (http://www.inkscape.org/) -->

<svg
   version="1.1"
   id="svg422"
   width="120.45129"
   height="39.094246"
   viewBox="0 0 120.45129 39.094246"
   xmlns="http://www.w3.org/2000/svg"
   xmlns:svg="http://www.w3.org/2000/svg">
  <defs
     id="defs426">
    <rect
       x="108.93199"
       y="82.929039"
       width="51.068008"
       height="37.61702"
       id="rect14" />
  </defs>
  <g
     id="g22"
     transform="translate(-16.97968,50.099201)">
    <g
       id="g21">
      <path
         id="path1610"
         style="fill:#246cd4;fill-opacity:1;fill-rule:evenodd;stroke:#081b32;stroke-width:1.04101;stroke-linecap:round;stroke-dasharray:none;stroke-opacity:1;paint-order:stroke markers fill"
         d="m 48.90874,-31.380106 c -1.62022,0 -2.933079,0.359389 -4.550155,0.928016 l -0.889686,0.312579 0.566751,0.56766 c 0.419264,0.640989 0.761571,0.951402 0.862236,1.473003 0.0438,0.226963 0.05989,0.611522 0.106569,0.639734 0.10881,0.06575 0.684143,-0.07571 1.519409,-0.305292 0.912265,-0.250749 1.944864,-0.562292 2.591554,-0.903722 1.019526,-0.538277 1.748676,-1.539018 1.519408,-2.052811 -0.160676,-0.360077 -0.73072,-0.659167 -1.726086,-0.659167 z" />
      <path
         style="fill:#ff6600;fill-opacity:1;fill-rule:evenodd;stroke-width:0.331384;stroke-linecap:round"
         d="m 31.063632,-31.615117 c -0.925708,-0.06404 -1.208889,-0.130778 -1.155317,-0.272283 0.103993,-0.274682 2.668969,-1.758266 3.039676,-1.75815 0.24546,7.7e-5 2.638807,0.996261 3.065189,1.275824 0.269604,0.176769 0.296789,0.223838 0.18486,0.320068 -0.360304,0.30977 -3.318701,0.560148 -5.134408,0.434541 z"
         id="path1898" />
      <path
         style="fill:#ffffff;fill-opacity:1;fill-rule:evenodd;stroke:none;stroke-width:0.191732;stroke-linecap:round;stroke-dasharray:none;stroke-opacity:1;paint-order:stroke markers fill"
         d="m 29.285484,-17.770801 c -1.205237,-0.146442 -3.12746,-0.520872 -3.466089,-0.675162 -0.578359,-0.263518 -1.231181,-2.615114 -1.589528,-5.7258 -0.08199,-0.711724 -0.133702,-1.309413 -0.114917,-1.328198 0.01878,-0.01879 0.930776,0.144875 2.026647,0.363689 5.118745,1.022066 8.557162,1.12592 13.385995,0.404313 1.09814,-0.164103 2.042108,-0.29837 2.097705,-0.29837 0.290744,0 -0.481699,5.089156 -0.911727,6.006804 -0.215631,0.460141 -0.59196,0.631129 -2.066743,0.939038 -2.080366,0.434344 -7.009055,0.599498 -9.361343,0.313686 z"
         id="path18" />
      <path
         style="fill:#ff6600;fill-opacity:1;fill-rule:evenodd;stroke-width:0.336822;stroke-linecap:round"
         d="m 32.166001,-30.167274 c -1.19724,-0.551508 -2.080312,-1.008255 -2.156813,-1.115559 -0.03421,-0.04799 0.542297,-0.05754 1.505328,-0.02493 1.697728,0.05748 3.083992,-0.04149 4.141342,-0.295654 0.344243,-0.08275 0.625898,-0.120747 0.625898,-0.08444 0,0.196336 -2.672145,1.982286 -2.967172,1.983133 -0.07896,2.24e-4 -0.595827,-0.207918 -1.148583,-0.462544 z"
         id="path1896" />
      <path
         style="fill:#ff6600;fill-opacity:1;fill-rule:evenodd;stroke-width:0.290913;stroke-linecap:round"
         d="m 35.770175,-14.510314 c -0.64611,-0.0885 -0.609798,-0.34986 -0.816395,-0.69523 -0.140496,-0.23486 -0.875094,-1.54142 -0.559824,-1.84972 0.574408,-0.56171 1.474783,-0.25111 1.910081,-0.29712 2.511311,-0.26544 2.822379,-0.52204 3.648611,-0.56683 l 0.962785,-0.21699 0.639443,0.43995 c 0.368462,0.25351 0.365394,0.99143 0.430932,1.49712 0.04408,0.34008 -0.181348,0.49634 -0.44224,0.69357 -0.59325,0.44847 -1.721762,0.84035 -3.333164,1.01397 -0.987979,0.10645 -0.576696,0.18491 -1.169695,0.10371 z"
         id="path1894" />
      <path
         style="fill:#ff6600;fill-opacity:1;fill-rule:evenodd;stroke-width:0.290913;stroke-linecap:round"
         d="m 27.43771,-14.632714 c -1.498035,-0.13428 -2.893507,-0.56601 -3.260906,-0.96658 -0.347291,-0.37866 -0.01906,-2.00993 0.517655,-2.44427 0.336663,-0.27245 0.945564,0.16611 1.986612,0.42001 0.329414,0.0803 1.300252,0.12549 2.453202,0.27987 1.152951,0.15437 2.539353,0.27105 2.600243,0.31914 0.145726,0.1151 -0.144709,1.3328 -0.41328,1.72442 -0.322325,0.46999 -0.591915,0.58142 -1.695793,0.60969 -0.537043,0.0137 -1.787729,0.0935 -2.187733,0.0577 z"
         id="path1892" />
      <path
         id="path1681"
         style="fill:#ff2a2a;fill-opacity:1;fill-rule:evenodd;stroke-width:0.290913;stroke-linecap:round"
         d="m 21.687857,-31.248912 c -0.07817,0.0024 -0.132319,0.02425 -0.153431,0.06877 -0.02536,0.05348 -0.156124,0.582195 -0.212443,0.974223 -0.113734,0.7917 -0.338054,1.84117 -0.174676,2.127054 0.112819,0.197414 1.405594,1.171261 2.129153,1.537744 0.71699,0.363162 1.73153,0.687931 2.80071,0.936975 1.271527,0.296177 3.115621,0.575369 4.009275,0.654258 0.854474,0.07541 6.997753,0.120187 8.096446,0.02866 0.856993,-0.0714 2.843993,-0.482381 3.610354,-0.72589 0.678524,-0.215595 2.360048,-0.746022 2.732256,-1.113674 l 0.555893,-0.549191 0.01534,-1.473753 c 0.139663,-1.097383 -0.185787,-1.793158 -0.260833,-1.85389 -0.08375,-0.06777 -0.769444,0.04992 -1.122408,0.207262 -1.416376,0.631375 -1.665385,0.81079 -2.448998,1.062094 -2.968185,0.951893 -6.26672,1.17491 -10.540723,0.689597 -1.629924,-0.185077 -2.235958,-0.31573 -4.091892,-0.810897 -1.897608,-0.506287 -3.214381,-0.977255 -3.879449,-1.373464 -0.383656,-0.22856 -0.830058,-0.393241 -1.064577,-0.385869 z" />
      <path
         id="path1683"
         style="fill:#ff2a2a;fill-opacity:1;fill-rule:evenodd;stroke-width:0.290913;stroke-linecap:round"
         d="m 45.174542,-28.648665 c -0.230405,-0.0033 0.206116,0.417859 -0.01583,0.582114 -0.106509,0.07882 0.04857,0.503637 -0.04377,0.754544 -0.09234,0.250912 0.158262,0.514212 0.08801,0.589413 -0.210962,0.225845 0.01514,0.65929 0.548812,1.621798 0.590508,1.065021 0.807133,1.768962 1.117687,3.119422 0.122607,0.53316 0.1005,0.71787 0.121565,0.76983 l 0.107401,0.32856 c 0.02607,0.0643 0.208822,0.0111 0.368235,-0.0181 0.488121,-0.0896 1.86259,-0.21963 2.757041,-0.22159 l 1.07992,0.0153 -0.142809,-0.72685 c -0.363165,-1.85235 -2.775862,-4.346942 -4.504953,-5.792511 -0.259136,-0.216645 -1.154172,-0.880114 -1.248282,-0.878453 -0.726072,0.01281 -0.233034,-0.143397 -0.233034,-0.143397 z" />
      <path
         style="fill:#0000a7;fill-opacity:1;fill-rule:evenodd;stroke-width:0.411414;stroke-linecap:round"
         d="m 24.332489,-34.809935 -1.093444,-0.61568 -0.04278,-1.026408 c -0.04365,-1.04712 -0.09569,-1.574884 0.08786,-1.738776 0.335728,-0.299786 1.809153,-0.552977 4.206143,-0.552977 1.964711,0 2.60571,-0.119656 2.78182,0.03783 0.158205,0.14147 0.75991,0.754439 0.786664,1.836728 0.02991,1.209869 -0.246038,1.743148 -0.44366,1.860593 -0.243179,0.14452 -1.004968,0.231978 -3.515987,0.270224 -1.471788,0.02242 -2.496964,0.166389 -2.766613,-0.07153 z"
         id="path1920" />
      <path
         style="fill:#b70000;fill-opacity:1;fill-rule:evenodd;stroke-width:0.411414;stroke-linecap:round"
         d="m 35.049408,-34.860749 c -0.535177,-0.05699 -0.688528,-0.998347 -0.687775,-1.96289 0.0014,-1.854731 0.437943,-1.803367 3.877184,-1.865297 1.312344,-0.02363 2.77124,0.190855 2.928263,0.222749 0.157023,0.03189 0.691532,0.275144 0.769493,0.413613 0.16423,0.291695 -0.06386,2.848677 -0.221903,3.050485 -0.188814,0.241105 -4.379969,0.384683 -5.039581,0.314446 z"
         id="path1922" />
      <path
         style="fill:#246cd4;fill-opacity:1;fill-rule:evenodd;stroke-width:0.145456;stroke-linecap:round"
         d="m 18.431574,-23.419854 c -0.232431,-0.0941 -0.422633,-0.14966 -0.591467,-0.30928 -0.206209,-0.194958 -0.417157,-0.505648 -0.417157,-0.8918 0,-0.736154 0.477109,-1.77934 1.306992,-2.674935 0.597175,-0.64446 1.060537,-0.960733 1.232448,-0.960733 0.103507,0 0.635997,-0.09304 0.770025,0.18829 0.178605,0.374895 0.273653,0.606596 0.405122,0.705251 0.08721,0.06545 0.118301,0.496367 0.14836,0.685188 0.0486,0.305277 -0.176361,0.865379 -0.225507,1.57762 -0.04212,0.610216 -0.104893,0.898367 -0.239076,1.036413 -0.189198,0.194646 -0.888668,0.500106 -1.509049,0.596666 -0.344842,0.0537 -0.605435,0.15872 -0.837894,0.0646 z"
         id="path1608" />
      <path
         style="fill:#246cd4;fill-opacity:1;fill-rule:evenodd;stroke-width:0.581827;stroke-linecap:round"
         d="m 41.306123,-18.727524 c -0.38503,-0.8307 0.278077,-1.48911 0.513372,-2.98645 0.235297,-1.49733 0.213906,-3.297453 0.513374,-3.754073 0.09613,-0.146584 1.816236,-0.829538 2.132237,-0.829538 0.335451,0 -0.24771,5.348891 -0.643688,5.968571 -0.410686,0.64269 -2.361507,1.9333 -2.515295,1.60149 z"
         id="path684" />
      <path
         id="path678"
         style="fill:#246cd4;fill-opacity:1;fill-rule:evenodd;stroke-width:0.581827;stroke-linecap:round"
         d="m 43.617897,-36.042665 c -0.37685,-0.02276 -0.961157,0.284388 -1.118868,0.758367 -0.179919,0.54072 -0.124117,4.723305 0.07908,5.005789 0.09814,0.136437 1.302302,-0.351464 1.700726,-0.707745 0.118064,-0.105575 0.17684,-0.204787 0.193559,-0.403061 -0.0041,-0.02028 -0.0085,-0.04062 -0.0118,-0.06113 -0.02341,-0.181991 -0.03134,-0.365432 -0.03777,-0.548239 -0.0067,-0.08824 -0.0048,-0.176278 0.0036,-0.263614 -0.02824,-0.291027 -0.06623,-0.652567 -0.110943,-1.122267 -0.107095,-1.125141 0.03522,-2.206714 -0.477996,-2.587422 -0.05715,-0.04239 -0.13256,-0.06543 -0.219525,-0.07068 z" />
      <path
         style="fill:#246cd4;fill-opacity:1;fill-rule:evenodd;stroke-width:0.581827;stroke-linecap:round"
         d="m 23.643502,-40.213536 c 0.973988,-2.154993 3.145531,-3.52199 6.154508,-4.107702 1.706883,-0.332251 5.992779,-0.362086 7.358347,-0.02553 1.369007,0.337387 3.309627,1.328585 3.911047,1.786315 0.829907,0.631625 2.078305,2.810062 2.078305,3.239858 0,0.0792 -0.765193,0.455593 -1.12526,0.455593 -0.484286,0 -1.104885,-0.301341 -1.411776,-0.567417 -0.821809,-0.712515 -1.307281,-0.885296 -2.923334,-0.885614 -1.431151,-2.79e-4 -1.36517,0.05687 -2.909114,0.694567 -0.87918,0.363133 -1.062228,0.624354 -1.704468,0.622804 -0.513895,0.06777 -0.779118,-0.159353 -1.34043,-0.435293 -1.233616,-0.606446 -2.219721,-0.88313 -3.335005,-0.88313 -1.043929,0 -1.663812,0.214383 -2.536014,0.852067 -0.551156,0.402959 -1.03625,0.399194 -1.604096,0.463534 l -1.222207,0.138482 z"
         id="path676" />
      <path
         style="display:inline;fill:#246cd4;fill-opacity:1;fill-rule:evenodd;stroke-width:0.581827;stroke-linecap:round"
         d="m 22.993561,-31.161012 c -0.336041,-0.253352 -1.321277,0.333556 -1.237254,-0.778969 0.123482,-1.634972 0.639663,-3.54395 1.260194,-3.186377 0.566323,0.326344 0.826812,1.254557 0.618044,2.870951 -0.118371,0.9165 -0.04617,1.542853 -0.640984,1.094395 z"
         id="path680" />
      <path
         style="fill:#246cd4;fill-opacity:1;fill-rule:evenodd;stroke-width:0.581827;stroke-linecap:round"
         d="m 23.630007,-19.128084 c -0.714917,-0.37046 -0.486397,0.38535 -1.514037,-1.81446 -0.520669,-1.11457 -0.530156,-5.9139 -0.362029,-5.9139 0.07376,0 1.379516,0.711141 1.681575,0.862219 0.543384,0.271774 0.09769,0.438814 0.308707,2.051042 0.197492,1.508899 0.729176,4.380009 0.940672,4.942959 0.118728,0.31601 -0.365378,0.22943 -1.054888,-0.12786 z"
         id="path682" />
      <path
         style="fill:#b3ffff;fill-opacity:1;fill-rule:evenodd;stroke-width:0.330017;stroke-linecap:round;paint-order:stroke markers fill"
         d="m 25.202586,-42.721455 c 0,-0.183749 0.620129,-0.921803 1.378064,-1.640121 2.357165,-2.233955 5.679161,-3.469168 10.455415,-3.887621 3.609282,-0.316213 3.198381,-0.556351 3.323946,1.942563 0.06018,1.197732 0.23541,2.486154 0.397038,2.919377 0.159121,0.426502 0.253278,0.775459 0.209236,0.775459 -0.04404,0 -0.741249,-0.325414 -1.549354,-0.723144 -1.933779,-0.951758 -3.466305,-1.176766 -7.133753,-1.047387 -3.500561,0.123493 -4.545545,0.389838 -6.577652,1.676513 -0.481576,0.304921 -0.50294,0.304256 -0.50294,-0.01564 z"
         id="path1" />
      <path
         style="fill:#b3ffff;fill-opacity:1;fill-rule:evenodd;stroke-width:0.273708;stroke-linecap:round;paint-order:stroke markers fill"
         d="m 40.568562,-45.935464 c -0.06339,-0.0513 -0.115246,-0.507192 -0.115246,-1.013104 0,-0.527344 -0.09127,-1.012811 -0.213906,-1.137724 -0.13058,-0.13301 -0.604218,-0.247899 -1.215886,-0.294936 -1.135529,-0.08732 -1.185636,-0.10747 -1.038559,-0.41764 0.17118,-0.361003 1.172511,-0.784286 1.855331,-0.784286 1.862342,0 2.979429,1.675208 1.939234,2.908119 -0.431688,0.511664 -1.036303,0.880919 -1.210968,0.739571 z"
         id="path2" />
      <path
         style="fill:#528be1;fill-opacity:1;fill-rule:evenodd;stroke-width:1.778;stroke-linecap:round;paint-order:stroke markers fill"
         d="m 71.647102,44.960521 c -0.65602,0.225049 3.182373,3.240449 5.641401,5.942097 2.459028,2.701648 3.538685,5.089538 4.618343,7.47743 0.232384,-2.837989 0.504729,-6.164001 -1.531441,-8.40107 -2.03617,-2.237069 -8.072282,-5.243506 -8.728303,-5.018457 z"
         id="path3"
         transform="matrix(0.60428288,0,0,0.48902197,-6.3491948,-66.201245)" />
      <path
         style="fill:#528be1;fill-opacity:1;fill-rule:evenodd;stroke-width:0.966532;stroke-linecap:round;paint-order:stroke markers fill"
         d="m 43.391291,-35.743712 0.03069,5.091752 1.038612,-0.798483 -0.648957,-4.976721 z"
         id="path4" />
      <path
         style="fill:#528be1;fill-opacity:1;fill-rule:evenodd;stroke-width:0.966532;stroke-linecap:round;paint-order:stroke markers fill"
         d="m 43.6492,-26.063708 -0.269978,5.907294 0.4641,-0.80202 0.406028,-1.26411 0.215756,-4.075041 z"
         id="path5" />
      <path
         style="fill:#aa0000;fill-opacity:1;fill-rule:evenodd;stroke:none;stroke-width:1.21225;stroke-linecap:round;stroke-dasharray:none;stroke-opacity:1;paint-order:stroke markers fill"
         d="m 28.461241,-26.918986 9.298364,0.06132 c 0,0 -1.682389,1.107873 -4.351008,1.177115 -2.668618,0.06924 -4.489991,-0.70048 -4.947356,-1.238439 z"
         id="path6" />
      <path
         style="fill:#aa0000;fill-opacity:1;fill-rule:evenodd;stroke:none;stroke-width:1.04101;stroke-linecap:round;stroke-dasharray:none;stroke-opacity:1;paint-order:stroke markers fill"
         d="m 25.213234,-29.651949 c 0,0 -2.722841,-0.735235 -2.960299,0.04944 -0.181505,0.599778 -0.190452,1.199238 0.22688,1.738134 0.189509,0.24471 1.961321,1.526138 3.597355,2.260226 1.636033,0.734089 -4.323229,-1.252297 -4.323229,-1.252297 l -1.021526,-1.211868 0.802011,-3.111831 1.459135,0.01913 z"
         id="path7" />
      <path
         style="fill:#ff5353;fill-opacity:1;fill-rule:evenodd;stroke:none;stroke-width:1.04101;stroke-linecap:round;stroke-dasharray:none;stroke-opacity:1;paint-order:stroke markers fill"
         d="m 37.574278,-38.416419 -1.861526,3.693521 0.588589,-0.126849 1.787979,-3.787891 z"
         id="path8" />
      <path
         style="fill:#ff5353;fill-opacity:1;fill-rule:evenodd;stroke:none;stroke-width:1.06692;stroke-linecap:round;stroke-dasharray:none;stroke-opacity:1;paint-order:stroke markers fill"
         d="m 38.175149,-38.503945 -1.861526,3.879727 0.588589,-0.133245 1.78798,-3.978854 z"
         id="path8-9" />
      <path
         style="fill:#2727ff;fill-opacity:1;fill-rule:evenodd;stroke:none;stroke-width:1.06692;stroke-linecap:round;stroke-dasharray:none;stroke-opacity:1;paint-order:stroke markers fill"
         d="m 26.885875,-38.554726 -1.861526,3.879727 0.588589,-0.133245 1.787979,-3.978854 z"
         id="path8-9-3" />
      <path
         style="fill:#2727ff;fill-opacity:1;fill-rule:evenodd;stroke:none;stroke-width:1.06692;stroke-linecap:round;stroke-dasharray:none;stroke-opacity:1;paint-order:stroke markers fill"
         d="m 28.727447,-38.687895 -1.861526,3.879727 0.588589,-0.133244 1.787979,-3.978855 z"
         id="path8-9-3-3" />
      <path
         style="fill:#2727ff;fill-opacity:1;fill-rule:evenodd;stroke:none;stroke-width:1.06692;stroke-linecap:round;stroke-dasharray:none;stroke-opacity:1;paint-order:stroke markers fill"
         d="m 26.284337,-38.554726 -1.861526,3.879727 0.588589,-0.133245 1.78798,-3.978854 z"
         id="path8-9-3-1" />
      <path
         style="fill:#2727ff;fill-opacity:1;fill-rule:evenodd;stroke:none;stroke-width:1.06692;stroke-linecap:round;stroke-dasharray:none;stroke-opacity:1;paint-order:stroke markers fill"
         d="m 25.697591,-38.554726 -1.861526,3.879727 0.588589,-0.133245 1.787979,-3.978854 z"
         id="path8-9-3-4" />
      <path
         style="fill:#ff5353;fill-opacity:1;fill-rule:evenodd;stroke:none;stroke-width:1.06692;stroke-linecap:round;stroke-dasharray:none;stroke-opacity:1;paint-order:stroke markers fill"
         d="m 38.762562,-38.503945 -1.861526,3.879727 0.588589,-0.133245 1.787979,-3.978854 z"
         id="path8-9-4" />
      <path
         style="fill:#ff5353;fill-opacity:1;fill-rule:evenodd;stroke:none;stroke-width:1.13069;stroke-linecap:round;stroke-dasharray:none;stroke-opacity:1;paint-order:stroke markers fill"
         d="m 40.283849,-38.728443 -1.861526,4.357328 0.588589,-0.149647 1.78798,-4.468659 z"
         id="path8-9-66" />
      <path
         style="fill:#85d9d9;fill-opacity:1;fill-rule:evenodd;stroke:none;stroke-width:1.04101;stroke-linecap:round;stroke-dasharray:none;stroke-opacity:1;paint-order:stroke markers fill"
         d="m 40.306087,-47.592037 c 1.221541,1.133793 -6.961953,-0.850115 -13.580862,4.636348 -1.418026,1.175412 -1.06085,-0.049 -1.068106,-0.443967 -0.04602,-2.505404 12.496266,-6.190446 14.648968,-4.192381 z"
         id="path9" />
      <path
         style="fill:#85d9d9;fill-opacity:1;fill-rule:evenodd;stroke:none;stroke-width:1.04101;stroke-linecap:round;stroke-dasharray:none;stroke-opacity:1;paint-order:stroke markers fill"
         d="m 41.931334,-48.66841 c 0,0 -1.724331,-0.237825 -3.024955,0.291312 -1.300625,0.529137 -1.870314,0.127901 -1.870314,0.127901 l 1.414741,-0.975093 0.852381,-0.835368 1.463446,-0.005 z"
         id="path10" />
      <path
         style="fill:#ff8080;fill-opacity:1;fill-rule:evenodd;stroke:none;stroke-width:1.04101;stroke-linecap:round;stroke-dasharray:none;stroke-opacity:1;paint-order:stroke markers fill"
         d="m 40.977591,-29.092349 c 0,0 3.188677,-0.9417 3.265431,0.671187 0.07675,1.612888 -2.449777,2.77404 -2.449777,2.77404 l 3.057235,-0.851215 0.30795,-1.921555 -0.393886,-2.211016 -2.298145,0.473503 z"
         id="path11" />
      <path
         style="fill:#b3ccf2;fill-opacity:1;fill-rule:evenodd;stroke:none;stroke-width:1.04101;stroke-linecap:round;stroke-dasharray:none;stroke-opacity:1;paint-order:stroke markers fill"
         d="m 24.076332,-26.098629 c 0,0 0.170889,7.613385 1.252446,8.037535 1.139071,0.44671 5.540166,1.08073 5.540166,1.08073 0,0 -4.988929,-2.36708 -6.792612,-9.118265 z"
         id="path12" />
      <path
         style="fill:#19478d;fill-opacity:1;fill-rule:evenodd;stroke:none;stroke-width:1.04101;stroke-linecap:round;stroke-dasharray:none;stroke-opacity:1;paint-order:stroke markers fill"
         d="m 23.075819,-34.559361 -0.08226,3.398347 1.109837,0.754533 -0.267333,-4.268518 z"
         id="path13" />
      <path
         style="fill:#19478d;fill-opacity:1;fill-rule:evenodd;stroke:none;stroke-width:1.04101;stroke-linecap:round;stroke-dasharray:none;stroke-opacity:1;paint-order:stroke markers fill"
         d="m 22.870288,-26.297585 c 0,0 -0.131732,6.748021 1.163378,7.492261 1.295112,0.74423 0,0 0,0 l 0.896543,0.19456 -1.494693,-7.383461 z"
         id="path14" />
      <text
         xml:space="preserve"
         id="text14"
         style="font-style:normal;font-variant:normal;font-weight:normal;font-stretch:normal;font-size:10.6667px;font-family:'Bauhaus 93';-inkscape-font-specification:'Bauhaus 93, Normal';font-variant-ligatures:normal;font-variant-caps:normal;font-variant-numeric:normal;font-variant-east-asian:normal;white-space:pre;shape-inside:url(#rect14);display:inline;fill:#ffffff;fill-opacity:1;fill-rule:evenodd;stroke:none;stroke-width:1.915;stroke-linecap:round;stroke-dasharray:none;stroke-opacity:1;paint-order:stroke markers fill"
         transform="matrix(2.3998555,0,0,2.1892809,-207.07198,-217.76435)"><tspan
           x="108.93164"
           y="92.734723"
           id="tspan2">ICEFLIX</tspan></text>
      <path
         style="fill:#ffffff;fill-opacity:1;fill-rule:evenodd;stroke:none;stroke-width:0.191732;stroke-linecap:round;stroke-dasharray:none;stroke-opacity:1;paint-order:stroke markers fill"
         d="m 30.787304,-29.041646 c -2.398003,-0.294526 -6.269688,-1.318538 -6.529373,-1.726938 -0.08995,-0.141454 -0.08267,-2.391784 0.0091,-2.822117 l 0.06407,-0.300364 2.683101,-0.07276 c 1.475706,-0.04002 2.851495,-0.118105 3.057309,-0.173525 0.236642,-0.06372 0.648624,-0.353142 1.120682,-0.78729 1.286703,-1.183366 1.370528,-1.18793 2.403712,-0.130877 1.013228,1.036636 1.100374,1.05864 4.199861,1.060459 2.010678,0.0012 2.458499,-0.02675 3.079305,-0.192034 0.557774,-0.148504 0.753861,-0.166009 0.844481,-0.07539 0.07556,0.07556 0.151836,0.827931 0.211994,2.09107 0.109443,2.297976 0.158532,2.175368 -1.016889,2.539789 -1.601269,0.49645 -2.769998,0.619898 -6.172591,0.651989 -1.762135,0.01662 -3.541791,-0.01129 -3.954792,-0.06201 z m 3.504246,-0.865035 c 1.343014,-0.726228 2.803397,-1.742357 2.803397,-1.950593 0,-0.239813 -2.778794,-1.712002 -3.580934,-1.897159 -0.407423,-0.09404 -0.576751,-0.08516 -0.989507,0.05194 -0.717083,0.238177 -1.977565,1.015788 -2.628136,1.621337 -0.558458,0.519811 -0.559988,0.522845 -0.369716,0.733093 0.293576,0.324398 2.612033,1.617153 3.263076,1.819468 0.372417,0.11573 0.776937,0.01389 1.50182,-0.378085 z"
         id="path19" />
      <path
         style="fill:#ffffff;fill-opacity:1;fill-rule:evenodd;stroke:none;stroke-width:0.191732;stroke-linecap:round;stroke-dasharray:none;stroke-opacity:1;paint-order:stroke markers fill"
         d="m 35.047181,-39.239917 c -0.09423,-0.152467 1.015235,-0.508836 2.079592,-0.667981 0.793822,-0.118694 1.109739,-0.125687 1.549902,-0.03431 0.648473,0.134622 1.421911,0.448676 1.421911,0.577365 0,0.04954 -0.209034,0.118721 -0.46452,0.15374 -0.723101,0.09911 -4.522574,0.07524 -4.586885,-0.02881 z"
         id="path20" />
      <path
         style="fill:#ffffff;fill-opacity:1;fill-rule:evenodd;stroke:none;stroke-width:0.191732;stroke-linecap:round;stroke-dasharray:none;stroke-opacity:1;paint-order:stroke markers fill"
         d="m 26.204388,-39.231429 c -0.193029,-0.122506 0.165394,-0.40241 0.73469,-0.573743 0.996135,-0.299792 2.916481,-0.08049 3.916693,0.44728 l 0.382079,0.201608 -2.452972,0.0029 c -1.349135,0.0016 -2.510355,-0.03353 -2.58049,-0.07804 z"
         id="path21" />
      <g
         id="g2297"
         transform="matrix(0.60428288,0,0,0.48902197,-0.08520981,-76.587553)">
        <path
           id="path549"
           style="fill:#081b32;fill-opacity:1;stroke-width:0.32"
           d="m 66.314453,54.166016 c -1.343138,0 -1.883157,0.186396 -3.035156,1.041015 -0.771039,0.572 -1.539116,1.327688 -1.705078,1.679688 -0.241149,0.511469 -0.964478,0.759971 -3.607422,1.238281 -7.658674,1.386019 -13.780607,5.097652 -15.761719,9.554688 -0.447967,1.007818 -1.24453,2.374883 -1.769531,3.039062 -0.525005,0.664169 -1.493484,2.323501 -2.152344,3.6875 -0.975445,2.019398 -1.334769,2.480469 -1.929687,2.480469 h -0.730469 l 0.0059,6.800781 c 0.0047,6.221774 -0.05187,6.933258 -0.671875,8.378906 -0.37269,0.868999 -0.76179,2.238017 -0.863281,3.041016 -0.155031,1.226659 -0.478645,1.765768 -2.029297,3.378906 -2.612496,2.717762 -3.553103,4.365572 -3.753906,6.580082 -0.222643,2.45534 0.05635,3.39068 1.185547,3.97461 1.161475,0.60058 2.346644,0.61 4.009765,0.0312 0.70354,-0.24487 1.369255,-0.38977 1.478516,-0.32227 0.109264,0.0675 0.298201,0.88064 0.419922,1.80859 0.635679,4.84614 1.641208,7.00617 3.783203,8.125 0.990872,0.51756 1.102042,1.2248 0.402344,2.56641 -0.621181,1.19104 -0.612978,2.98647 0.01758,3.88672 0.666642,0.95176 2.160773,1.71102 4.300781,2.18555 2.262465,0.50164 5.617362,0.51555 7.005859,0.0273 1.238076,-0.43532 2.271597,-2.05785 2.279297,-3.57813 0.0063,-1.23858 0.275464,-1.61659 1.332032,-1.875 1.183211,-0.28937 1.861328,0.47082 1.861328,2.08399 0,1.77091 0.845355,3.0834 2.232422,3.46875 0.620495,0.17238 2.279501,0.31159 3.6875,0.30859 2.934727,-0.006 6.660555,-1.11298 7.601562,-2.25976 0.692804,-0.8443 0.732377,-2.99357 0.07813,-4.24805 -0.731912,-1.40338 -0.61338,-1.72817 1.267578,-3.44727 2.365432,-2.16186 2.751836,-3.04049 2.931641,-6.67578 0.376313,-7.60826 0.941552,-7.60277 2.335937,0.0215 0.325049,1.77732 0.738988,3.37961 0.919922,3.56054 0.225303,0.22531 0.842348,0.15735 1.957032,-0.21289 1.102881,-0.36636 2.37447,-0.50694 3.947265,-0.43554 l 2.322266,0.10547 0.111328,-0.95899 c 0.317155,-2.74405 -3.068062,-7.92028 -5.649045,-10.77224 -0.82446,-0.91102 -0.945022,-0.79036 -3.151337,-3.193453 -0.780808,-0.863146 -1.061205,-0.943781 -1.524045,-1.201892 -0.264349,0.0256 -0.428071,-0.636736 -0.425571,-0.816755 0.0097,-0.346928 -0.02521,-1.066475 -0.03231,-1.473146 -0.04735,-0.330263 0.03896,-1.894493 -0.193943,-2.2314 -0.261182,-0.251944 -0.392612,-0.160362 -0.511659,-0.371591 0.106143,-0.577672 0.127414,-0.36143 0.185866,-1.296833 -0.02764,-1.001109 -0.184439,-2.848115 -0.184271,-3.375077 -0.02864,-0.616558 -0.04512,-0.651064 -0.0918,-1.347651 -0.198003,-2.954597 -1.094464,-9.046608 -1.554688,-10.560547 -0.18726,-0.615999 -0.598913,-1.624235 -0.914062,-2.240234 -0.315148,-0.616 -1.299928,-2.537033 -2.189453,-4.269531 -0.889523,-1.732509 -1.71272,-3.652429 -1.828125,-4.267579 -0.193945,-1.033828 -0.08144,-1.248573 1.476562,-2.826171 1.4919,-1.510659 1.702507,-1.892967 1.839844,-3.322266 0.136237,-1.417849 0.02995,-1.811956 -0.882812,-3.234375 -1.261231,-1.965458 -1.732444,-2.240234 -3.833985,-2.240234 z m -0.230469,0.949218 c 1.37468,-0.01655 2.758027,0.688708 3.447266,1.976563 0.908802,1.698118 0.655027,3.385991 -0.714844,4.755859 -1.580439,1.580439 -1.986291,1.322282 -1.789062,-1.134765 0.211654,-2.636798 -0.109783,-3.025391 -2.501953,-3.025391 -2.053713,0 -2.257669,-0.467093 -0.753907,-1.732422 0.665212,-0.559739 1.487693,-0.829915 2.3125,-0.839844 z m -0.169922,3.439454 0.125,3.486328 c 0.08602,2.385697 0.290848,3.813618 0.650391,4.523437 0.288955,0.57044 0.42367,1.100535 0.298828,1.177735 -0.124842,0.07716 -0.893299,-0.275514 -1.708984,-0.783204 -2.784756,-1.733278 -4.394819,-2.072265 -9.851563,-2.072265 -5.461559,0 -8.24643,0.582503 -10.677734,2.232422 -0.65476,0.444339 -1.248569,0.80664 -1.318359,0.80664 -1.199516,0 2.022453,-3.692956 4.566406,-5.234375 3.922495,-2.376697 8.214363,-3.547705 14.375,-3.921875 z m -9.855468,7.234374 c 1.261139,0.01388 2.482078,0.124222 3.58789,0.339844 2.410673,0.47005 5.910454,1.958756 7.103516,3.021485 1.533073,1.365598 4.357422,5.99106 4.357422,7.136718 0,0.15363 -0.585419,0.279297 -1.300781,0.279297 -1.040348,0 -1.455782,-0.184575 -2.076172,-0.921875 -2.207147,-2.622967 -7.053779,-2.62383 -10.958985,-0.002 -1.694305,1.137529 -2.453414,1.155848 -4.007812,0.09961 -2.116248,-1.438029 -3.799816,-2.041829 -5.714844,-2.048829 -2.303524,-0.0089 -3.093089,0.297211 -4.439453,1.72461 -0.919631,0.974979 -1.292873,1.148437 -2.474609,1.148437 -1.293867,0 -1.374426,-0.05105 -1.171875,-0.720703 0.891493,-2.947357 3.592606,-6.145987 6.630859,-7.853515 2.53122,-1.422569 6.681425,-2.244756 10.464844,-2.203126 z m 7.251953,8.986329 c 0.206102,0.0016 0.386201,0.01565 0.53125,0.04687 1.329126,0.286149 2.785156,1.036484 2.785156,1.433593 0,0.18776 -1.809952,0.310547 -4.550781,0.310547 -4.136649,0 -4.488079,-0.04422 -3.865234,-0.480468 0.937808,-0.656871 3.656897,-1.321633 5.099609,-1.310547 z M 46.6875,74.845703 c 1.335648,-0.0067 2.840353,0.35012 4.210938,1.074219 v 0.002 l 1.169921,0.617187 -4.572265,0.01367 c -4.482108,0.01387 -4.561152,0.0012 -4,-0.595703 0.690433,-0.734369 1.855758,-1.10467 3.191406,-1.111328 z m -2.417969,3.087891 c 0.67508,-0.01573 1.368389,-0.0066 2.03711,0.0332 1.055999,0.06288 2.679551,0.05863 3.085937,0.08203 0.406388,0.02338 0.612224,0.03984 0.94336,0.566406 0.259276,0.412305 0.142586,0.407592 0.222656,2.97461 0.08067,2.586437 0.02209,2.980493 -0.496094,3.257812 -0.324224,0.17352 -2.344865,0.314453 -4.488281,0.314453 -2.143416,0 -4.005793,0.06227 -4.140625,0.138672 -0.529526,0.3 -2.014919,-0.498457 -2.15625,-1.160156 -0.08144,-0.38122 -0.114842,-1.678021 -0.07617,-2.880859 0.05468,-1.700829 0.199947,-2.282108 0.658203,-2.617188 0.525716,-0.384412 2.384918,-0.661796 4.410156,-0.708984 z m 18.298828,0.01758 c 0.67508,-0.01573 1.370342,-0.0066 2.039063,0.0332 1.055999,0.06288 2.677598,0.05863 3.083984,0.08203 0.406388,0.02338 0.612224,0.03984 0.94336,0.566406 0.259276,0.412305 0.144539,0.407592 0.224609,2.97461 0.08067,2.586437 0.02013,2.980493 -0.498047,3.257812 L 63.875,85.179688 c -2.143416,0 -4.007746,0.06227 -4.142578,0.138671 -0.529526,0.3 -2.012966,-0.50041 -2.154297,-1.162109 -0.08144,-0.38122 -0.116795,-1.676067 -0.07813,-2.878906 0.05468,-1.700829 0.199948,-2.282108 0.658203,-2.617188 0.525717,-0.384412 2.384918,-0.661796 4.410156,-0.708984 z m -8.726562,5.367187 c 0.677094,-0.0783 1.314222,0.571382 2.1875,1.984375 0.989989,1.601839 1.794492,1.824219 6.628906,1.824219 3.328455,0 4.548611,-0.116766 5.308594,-0.509765 1.360156,-0.70337 1.522006,-0.337298 1.572265,3.548828 0.02276,1.759998 0.08897,3.598254 0.146485,4.083984 0.08797,0.742879 -0.08688,0.980471 -1.09375,1.494141 -0.658351,0.335859 -2.340998,0.852607 -3.740235,1.148437 -3.440569,0.727409 -10.099932,0.882128 -13.904296,0.324219 -2.912291,-0.4271 -8.083664,-1.940996 -9.980469,-2.921875 -0.862699,-0.44612 -0.898438,-0.561869 -0.898438,-2.816406 0,-1.293489 0.08922,-2.801563 0.199219,-3.351563 l 0.199219,-1 4.521484,-0.01172 c 2.930547,-0.0074 4.764025,-0.148401 5.214844,-0.40039 0.382432,-0.21376 1.215888,-1.072204 1.853516,-1.908203 0.706088,-0.925758 1.258527,-1.427383 1.785156,-1.488281 z m 18.361328,0.167969 c 0.522033,-0.0061 0.572309,0.73364 0.986328,6.679688 0.191235,2.746477 0.13474,2.924019 -1.191406,3.767578 C 71.520239,94.237533 71.07163,94.486328 71,94.486328 c -0.07163,0 -0.234547,-2.011969 -0.361328,-4.472656 -0.253308,-4.916475 0.01466,-6.244828 1.308594,-6.492188 0.09621,-0.01839 0.181283,-0.03428 0.255859,-0.03516 z m -34.636719,2.173828 c 0.230017,-0.01829 0.490007,0.04949 0.761719,0.283203 0.850309,0.73141 0.856168,0.758991 0.625,3.679688 -0.128112,1.618648 -0.326138,2.940547 -0.439453,2.935547 -0.113315,-0.0047 -0.616613,-0.257227 -1.119141,-0.560547 -0.905807,-0.54673 -0.912722,-0.572064 -0.720703,-2.919922 0.07424,-0.907716 0.65857,-2.804963 0.642578,-3.353516 0.07921,-0.02844 0.160201,-0.05731 0.25,-0.06445 z m 17.199219,1.78711 c -1.452399,0 -6.317676,3.980566 -5.970703,4.884765 0.171273,0.44632 3.178532,2.588903 5.193359,3.701172 1.096921,0.60555 1.654418,0.424031 3.900391,-1.273437 2.838502,-2.145298 3.61914,-2.862196 3.61914,-3.322266 0,-0.39371 -3.662733,-2.9218 -5.214843,-3.599609 -0.492282,-0.21498 -1.180128,-0.390625 -1.527344,-0.390625 z m 25.939453,0.335937 c -1.344835,-0.04703 0,0 0,0 z m -25.9375,0.302735 c 0.42247,-10e-7 4.10472,1.781001 4.69336,2.269531 0.750821,0.623119 0.517636,0.828501 -1.367188,1.207031 -2.000997,0.40181 -6.645861,0.453374 -7.585938,0.08398 -0.583588,-0.229319 -0.584088,-0.251848 -0.0059,-0.830078 0.765634,-0.765629 3.835536,-2.730468 4.265625,-2.730468 z m 4.921875,3.896484 c 0.491938,-0.01562 -0.600061,1.142927 -2.287109,2.34375 -0.989059,0.703999 -1.884551,1.319387 -1.988282,1.367187 -0.212002,0.09769 -3.656653,-1.718972 -4.826171,-2.544921 -0.730819,-0.51613 -0.653746,-0.530262 1.958984,-0.363282 2.487121,0.15896 5.338229,-0.140843 6.832031,-0.720703 0.137869,-0.05352 0.24027,-0.0798 0.310547,-0.08203 z m -23.402344,1.183594 c 0.266181,0.01179 0.574546,0.162438 0.804688,0.392578 0.231536,0.23154 1.132958,0.892797 1.435547,0.998047 0.248045,0.08627 2.026819,0.956975 3.33789,1.421875 0.717051,0.254269 4.170345,1.406922 5.402344,1.726562 1.231999,0.31964 4.083073,0.752811 6.335938,0.962891 7.777582,0.725249 14.073961,-0.615231 19.65039,-4.185547 0.387997,-0.24845 0.818982,-0.336806 0.958985,-0.197266 0.140003,0.13954 0.253906,1.716971 0.253906,3.50586 v 3.251952 l -1.523438,1.02148 c -1.548503,1.03655 -4.318868,2.20291 -5.916015,2.49219 -0.484202,0.0877 -1.384001,0.31793 -2,0.51172 -1.420985,0.44703 -12.971886,0.67115 -15.519532,0.30078 -2.970029,-0.43176 -6.96797,-1.46555 -8.517578,-2.20117 -1.248683,-0.59277 -1.737224,-0.87203 -2.984375,-1.70703 -0.185606,-0.12427 -0.842985,-0.65239 -1.458984,-1.17383 -1.102542,-0.933328 -1.118619,-0.986632 -1.105469,-3.39453 0.0092,-1.683878 0.06934,-1.733931 0.298828,-3.28125 0.05782,-0.33038 0.280695,-0.457097 0.546875,-0.445312 z m 42.457778,8.664362 c 2.314619,2.54499 5.265098,6.5704 5.926988,10.28485 l 0.205078,1.14844 -2.324219,-0.0234 c -1.278657,-0.0127 -2.764042,0.0943 -3.300781,0.23829 l -0.976562,0.26171 -0.398438,-2.18554 c -0.605279,-3.3243 -0.980863,-4.55275 -2.113281,-6.91016 -0.84174,-1.75229 -0.947707,-1.74918 -0.865537,-2.18633 0.126044,-0.67062 0.305134,-1.32416 0.258229,-1.93744 -0.08433,-1.102609 -0.181384,-1.01093 0.08472,-1.518761 0.240302,-0.458591 1.168088,0.413713 1.609018,0.87212 0,0 1.569604,1.598671 1.894785,1.956221 z M 33.164062,99.035158 c 0.343371,-0.106485 0.556145,0.223384 0.876954,0.875 0.286521,0.581972 0.754508,0.925192 0.976562,1.296872 0.09265,0.15508 -0.08456,1.2126 -0.138672,2.94336 -0.09051,2.89485 -0.106491,2.95232 -1.050781,3.49609 -0.527999,0.30405 -1.487353,0.64785 -2.130859,0.76563 -3.229818,0.5912 -3.339177,-3.60307 -0.199219,-7.63867 0.848099,-1.090014 1.322645,-1.631796 1.666015,-1.738282 z m 3.253907,3.453122 c 0.439656,0.002 2.368833,1.23446 2.36914,1.51367 0.0027,2.42873 0.95813,9.46975 1.646485,12.14063 0.474764,1.84214 0.301229,2.13463 -0.845703,1.42773 -1.428095,-0.8802 -2.022881,-1.67764 -2.560547,-3.42773 -0.55545,-1.80799 -1.070418,-11.6563 -0.609375,-11.6543 z M 73.160156,103.5 c 0.379536,-0.18317 -0.02161,8.66615 -0.464844,10.25586 -0.182492,0.65453 -0.672624,1.59061 -1.08789,2.08008 -0.41527,0.48946 -1.223704,1.16402 -1.796875,1.49804 l -1.041016,0.60743 0.226563,-1.08789 c 0.266421,-1.27795 1.001237,-6.8797 1.308594,-9.97266 0.20965,-2.10974 0.245685,-2.18074 1.388671,-2.70313 0.6456,-0.29506 1.306365,-0.60033 1.466797,-0.67773 z m -33.183594,0.80859 0.765626,0.2168 c 9.31263,2.64193 16.577277,3.13622 24.09375,1.64063 2.211325,-0.44 4.106986,-0.79883 4.21289,-0.79883 0.419571,0 -0.615696,9.25619 -1.310547,11.71484 -0.447036,1.58179 -0.517004,1.65059 -2.146484,2.1582 -0.926297,0.28855 -2.405157,0.67249 -3.285156,0.85157 -0.879999,0.17908 -3.902753,0.3911 -6.71875,0.4707 -5.109768,0.14437 -7.454586,-0.10065 -11.519532,-1.19727 -1.534987,-0.4141 -1.623391,-0.49912 -2.160156,-2.10156 -0.726162,-2.16787 -1.409273,-6.16738 -1.699219,-9.94531 z m 27.712891,15.57422 c 0.18113,0.0529 0.353114,0.21696 0.591797,0.51172 0.708252,0.87465 1.301397,2.96363 1.037109,3.65235 -0.28918,0.75359 -1.997889,1.67599 -3.810547,2.05859 -4.020302,0.84856 -6.496893,0.62255 -7.34375,-0.66992 -0.256863,-0.39202 -0.51045,-1.35007 -0.5625,-2.13086 l -0.09375,-1.41992 2.878907,-0.38086 c 3.333462,-0.44119 5.723735,-0.96955 6.660156,-1.47071 0.27207,-0.1456 0.461448,-0.20328 0.642578,-0.15039 z m -25.435547,0.21875 c 0.295624,3.6e-4 0.620354,0.0947 0.972656,0.28321 0.473859,0.2536 4.002752,0.91769 7.998047,1.50585 1.055084,0.15532 1.074333,0.18411 0.878907,1.40626 -0.287299,1.79665 -0.816046,2.78881 -1.595704,2.99804 -1.485947,0.39877 -5.528121,0.14002 -7.480468,-0.47851 -2.393908,-0.75843 -3.046017,-1.5304 -2.675782,-3.17188 0.38292,-1.69786 1.015473,-2.54403 1.902344,-2.54297 z m 13.583985,13.22656 c -0.03364,0.0336 -0.05677,0.14564 -0.06445,0.33204 -0.01389,0.3373 0.06163,0.52625 0.167968,0.41992 0.10632,-0.10634 0.117831,-0.38228 0.02539,-0.61328 -0.05108,-0.12764 -0.09526,-0.17232 -0.128906,-0.13868 z" />
      </g>
    </g>
  </g>
</svg>
